#VRML V2.0 utf8
# 3D model generated by easyeda2kicad.py (https://github.com/uPesy/easyeda2kicad.py)

Shape{
    appearance Appearance {
        material  Material 	{
            diffuseColor 0.20784313725490197 0.20784313725490197 0.20784313725490197
            specularColor 0.01568627450980392 0.01568627450980392 0.01568627450980392
            ambientIntensity 0.298
            transparency 0.0
            shininess 0.5
        }
    }
    geometry IndexedFaceSet {
        ccw TRUE
        solid FALSE
        coord DEF co Coordinate {
            point [
                2.5365 -1.8681 0.6672, 2.5365 -1.8681 0.6172, 2.6579 -1.8681 0.6172, 2.9536 -1.8681 0.7798, 2.9536 -1.8681 0.7395, 2.9772 -1.8681 0.7395, 2.7758 -1.8681 0.6675, 2.7722 -1.8681 0.6688, 2.7722 -1.8681 0.6672, 2.8026 -1.8681 0.6676, 2.799 -1.8681 0.6672, 2.8298 -1.8681 0.6672, -3.2691 -1.8681 0.8126, -3.2618 -1.8681 0.8303, -3.7106 -1.8681 0.8303, 3.0634 -1.8681 0.9028, 3.0171 -1.8681 0.9028, 3.0762 -1.8681 0.8683, 3.0171 -1.8681 0.8672, 3.0942 -1.8681 0.8683, 3.8681 -1.8681 0.8672, 3.8681 -1.8681 3.9764, 3.0462 -1.8681 0.9944, 3.0109 -1.8681 0.9028, 2.9987 -1.8681 0.8683, 2.9772 -1.8681 0.8672, 2.9807 -1.8681 0.8683, 3.0171 -1.8681 0.9637, 3.0288 -1.8681 0.9944, 3.0171 -1.8681 3.9764, 2.9772 -1.8681 3.9764, 2.7424 -1.8681 0.9949, 2.7542 -1.8681 0.9913, 2.7722 -1.8681 3.9764, 2.7542 -1.8681 0.8891, 2.7542 -1.8681 0.8735, 2.7722 -1.8681 0.8672, 2.7521 -1.8681 0.8724, 2.7385 -1.8681 0.868, 2.7304 -1.8681 0.8672, 2.7542 -1.8681 0.9743, 2.7514 -1.8681 0.9758, 2.7384 -1.8681 0.9803, 2.7288 -1.8681 0.881, 2.7428 -1.8681 0.8839, 2.6769 -1.8681 0.9286, 2.6769 -1.8681 0.9299, 2.6698 -1.8681 0.9675, 2.678 -1.8681 0.9779, 2.6654 -1.8681 3.9764, 2.6809 -1.8681 0.9807, 2.6931 -1.8681 0.9892, 2.7063 -1.8681 0.9943, 2.7243 -1.8681 0.9965, 2.7262 -1.8681 0.9965, 2.7245 -1.8681 0.9818, 2.7199 -1.8681 0.9816, 2.7089 -1.8681 0.9796, 2.6879 -1.8681 0.9653, 2.6822 -1.8681 0.9562, 2.6784 -1.8681 0.9447, 2.6789 -1.8681 0.9131, 2.6829 -1.8681 0.9029, 2.6893 -1.8681 0.8939, 2.7003 -1.8681 0.8855, 2.7093 -1.8681 0.8821, 2.7217 -1.8681 0.8807, 2.699 -1.8681 0.9751, 2.6901 -1.8681 0.9678, 2.692 -1.8681 0.8913, 2.6654 -1.8681 0.9003, 2.6622 -1.8681 0.9087, 2.6579 -1.8681 0.8672, 2.6598 -1.8681 0.9289, 2.6602 -1.8681 0.9376, 2.6634 -1.8681 0.9537, 2.6654 -1.8681 0.9581, 2.6855 -1.8681 0.8753, 2.676 -1.8681 0.8834, 2.6654 -1.8681 0.8672, 2.6748 -1.8681 0.8847, 2.6673 -1.8681 0.8954, 2.7193 -1.8681 0.8662, 2.7109 -1.8681 0.8666, 2.6654 -1.8681 0.8303, 2.708 -1.8681 0.8672, 2.6973 -1.8681 0.8696, 2.904 -1.8681 0.7583, 2.9203 -1.8681 0.7583, 2.9289 -1.8681 0.8303, 2.8751 -1.8681 0.6906, 2.877 -1.8681 0.6832, 2.8774 -1.8681 0.6832, 2.8592 -1.8681 0.8303, 2.8592 -1.8681 0.7364, 2.8794 -1.8681 0.6905, 2.8782 -1.8681 0.6863, 2.8339 -1.8681 0.7583, 2.8298 -1.8681 0.8303, 2.8592 -1.8681 0.694, 2.8516 -1.8681 0.7583, 2.8592 -1.8681 0.6672, 2.8687 -1.8681 0.6672, 2.8692 -1.8681 0.6684, 2.8592 -1.8681 0.6464, 2.8592 -1.8681 0.6464, 2.8623 -1.8681 0.6521, 2.8298 -1.8681 0.6172, 2.8371 -1.8681 0.6271, 2.8371 -1.8681 0.6412, 2.8461 -1.8681 0.6394, 2.8499 -1.8681 0.6398, 2.8592 -1.8681 0.6286, 2.8537 -1.8681 0.6266, 2.8592 -1.8681 0.6172, 2.8473 -1.8681 0.6258, 2.8438 -1.8681 0.626, 2.8534 -1.8681 0.6411, 2.8563 -1.8681 0.6431, 2.8795 -1.8681 0.6546, 2.8723 -1.8681 0.6407, 2.9289 -1.8681 0.6172, 2.8844 -1.8681 0.6672, 2.8665 -1.8681 0.6338, 2.8655 -1.8681 0.6328, 2.8599 -1.8681 0.6289, -3.7106 -1.8681 0.6172, -3.7106 -1.8681 0.0394, -3.5925 -1.8681 0.2362, -3.5925 -1.8681 0.0394, -0.502 -1.8681 0.2362, -0.4979 -1.8681 0.2362, -0.4979 -1.8681 0.6172, -3.092 -1.8681 0.5818, -3.0446 -1.8681 0.5881, -3.0004 -1.8681 0.6064, -2.9862 -1.8681 0.6172, -3.1395 -1.8681 0.5881, -3.1837 -1.8681 0.6064, -0.4979 -1.8681 0.8303, -2.9087 -1.8681 0.7651, -0.4979 -1.8681 0.6672, -2.915 -1.8681 0.7177, -2.9333 -1.8681 0.6735, -2.9381 -1.8681 0.6672, -2.9624 -1.8681 0.6355, -2.9333 -1.8681 0.8568, -2.9223 -1.8681 0.8303, -2.915 -1.8681 0.8126, -2.9413 -1.8681 0.8672, -0.4979 -1.8681 0.8672, -2.9624 -1.8681 0.8947, -0.4979 -1.8681 3.9764, -3.0004 -1.8681 0.9239, -3.1837 -1.8681 0.9239, -3.1395 -1.8681 0.9422, -3.7106 -1.8681 3.9764, -3.092 -1.8681 0.9484, -3.0446 -1.8681 0.9422, -3.7106 -1.8681 0.8672, -3.2508 -1.8681 0.8568, -3.2427 -1.8681 0.8672, -3.2216 -1.8681 0.8947, -3.2508 -1.8681 0.6735, -3.2691 -1.8681 0.7177, -3.7106 -1.8681 0.6672, -3.2753 -1.8681 0.7651, -3.1978 -1.8681 0.6172, -3.2216 -1.8681 0.6355, -3.246 -1.8681 0.6672, 3.75 -1.8681 0.0394, 3.8681 -1.8681 0.0394, 3.75 -1.8681 0.2362, 3.8681 -1.8681 0.6172, 3.0171 -1.8681 0.2362, 2.8204 -1.8681 0.7076, 2.8233 -1.8681 0.7033, 2.8214 -1.8681 0.741, 2.823 -1.8681 0.6814, 2.82 -1.8681 0.6772, 2.825 -1.8681 0.6986, 2.8257 -1.8681 0.6927, 2.8249 -1.8681 0.6864, 2.7791 -1.8681 0.7557, 2.7877 -1.8681 0.7589, 2.7722 -1.8681 0.8303, 2.8 -1.8681 0.7604, 2.8214 -1.8681 0.7564, 2.8098 -1.8681 0.7596, 2.8155 -1.8681 0.6733, 2.8111 -1.8681 0.6707, 2.7985 -1.8681 0.7475, 2.7938 -1.8681 0.7472, 2.7812 -1.8681 0.7354, 2.7896 -1.8681 0.7461, 2.786 -1.8681 0.7442, 2.7814 -1.8681 0.7333, 2.782 -1.8681 0.7309, 2.7831 -1.8681 0.7287, 2.7847 -1.8681 0.727, 2.7902 -1.8681 0.7236, 2.8098 -1.8681 0.7461, 2.8 -1.8681 0.7193, 2.8187 -1.8681 0.7426, 2.8061 -1.8681 0.7168, 2.8166 -1.8681 0.711, 2.7836 -1.8681 0.7421, 2.7823 -1.8681 0.7401, 2.7815 -1.8681 0.7379, 2.6771 -1.8681 0.7108, 2.6799 -1.8681 0.7366, 2.6738 -1.8681 0.7057, 2.6719 -1.8681 0.6999, 2.7704 -1.8681 0.749, 2.7722 -1.8681 0.7506, 2.7751 -1.8681 0.7532, 2.7649 -1.8681 0.6877, 2.7434 -1.8681 0.7262, 2.7649 -1.8681 0.6714, 2.7434 -1.8681 0.6682, 2.7198 -1.8681 0.6731, 2.7142 -1.8681 0.6693, 2.7277 -1.8681 0.6682, 2.7082 -1.8681 0.6672, 2.6818 -1.8681 0.715, 2.6883 -1.8681 0.7185, 2.6904 -1.8681 0.7433, 2.701 -1.8681 0.7218, 2.7148 -1.8681 0.747, 2.7094 -1.8681 0.7475, 2.7003 -1.8681 0.7466, 2.6654 -1.8681 0.6172, 2.6905 -1.8681 0.6672, 2.6654 -1.8681 0.6672, 2.6902 -1.8681 0.6672, 2.6841 -1.8681 0.6695, 2.7361 -1.8681 0.751, 2.7394 -1.8681 0.746, 2.7675 -1.8681 0.7447, 2.742 -1.8681 0.7391, 2.7656 -1.8681 0.7397, 2.6788 -1.8681 0.6732, 2.6771 -1.8681 0.675, 2.6738 -1.8681 0.6799, 2.6969 -1.8681 0.7589, 2.6848 -1.8681 0.7547, 2.6799 -1.8681 0.752, 2.7277 -1.8681 0.6822, 2.7272 -1.8681 0.6822, 2.7248 -1.8681 0.6784, 2.6719 -1.8681 0.6852, 2.6711 -1.8681 0.6924, 2.7109 -1.8681 0.7604, 2.7209 -1.8681 0.7594, 2.7275 -1.8681 0.7573, 2.7277 -1.8681 0.7255, 2.7271 -1.8681 0.7325, 2.7255 -1.8681 0.7381, 2.7236 -1.8681 0.7414, 2.7656 -1.8681 0.7279, 2.7649 -1.8681 0.734, 2.7326 -1.8681 0.7543, 2.7212 -1.8681 0.7439, 2.7184 -1.8681 0.7457, 2.7722 -1.8681 0.6836, 2.7722 -1.8681 0.717, 2.77 -1.8681 0.6844, 2.772 -1.8681 0.7171, 2.7694 -1.8681 0.7198, 2.7674 -1.8681 0.723, 2.7799 -1.8681 0.6804, 2.7889 -1.8681 0.7078, 2.7795 -1.8681 0.7121, 2.7908 -1.8681 0.679, 2.7915 -1.8681 0.679, 2.7992 -1.8681 0.7035, 2.7996 -1.8681 0.6799, 2.8095 -1.8681 0.6912, 2.8093 -1.8681 0.6932, 2.8037 -1.8681 0.6814, 2.8051 -1.8681 0.6823, 2.807 -1.8681 0.6839, 2.8083 -1.8681 0.6859, 2.8091 -1.8681 0.6882, 2.8086 -1.8681 0.6956, 2.8074 -1.8681 0.6977, 2.8054 -1.8681 0.6998, 2.7792 -1.8681 0.6672, 2.7722 -1.8681 0.6172, 2.7893 -1.8681 0.6661, 2.8404 -1.8681 0.6401, 2.7078 -1.8681 0.667, 2.6996 -1.8681 0.6661, 2.4272 -1.8681 0.8961, 2.4515 -1.8681 0.8755, 2.5365 -1.8681 3.9764, 2.3077 -1.8681 1.0085, 2.3477 -1.8681 0.9816, 2.3775 -1.8681 0.9471, 2.1815 -1.8681 1.0228, 2.2258 -1.8681 1.0282, 2.2627 -1.8681 1.0243, 2.3961 -1.8681 0.9108, 2.4005 -1.8681 0.9093, 1.955 -1.8681 0.9126, 1.9611 -1.8681 0.9183, 1.9896 -1.8681 0.9383, 2.0971 -1.8681 0.9752, 2.1182 -1.8681 0.9932, 2.1401 -1.8681 1.0068, 2.0228 -1.8681 0.9512, 2.0581 -1.8681 0.9556, 2.0685 -1.8681 0.955, 2.0788 -1.8681 0.9538, 1.9152 -1.8681 0.8303, 1.9192 -1.8681 0.8526, 1.9256 -1.8681 0.8672, 1.9335 -1.8681 0.8849, 2.0109 -1.8681 0.673, 1.9785 -1.8681 0.6888, 1.9506 -1.8681 0.7126, 1.9301 -1.8681 0.7418, 1.9173 -1.8681 0.7752, 1.9129 -1.8681 0.8104, 1.9132 -1.8681 0.8189, 2.0223 -1.8681 0.6696, 2.0234 -1.8681 0.6672, 2.0313 -1.8681 0.6503, 2.0446 -1.8681 0.6339, 2.1292 -1.8681 0.6113, 2.1075 -1.8681 0.6086, 2.5365 -1.8681 0.2362, 2.1041 -1.8681 0.6087, 2.0829 -1.8681 0.612, 2.0704 -1.8681 0.6172, 2.0622 -1.8681 0.6207, 2.1914 -1.8681 0.6672, 2.1913 -1.8681 0.6667, 2.1807 -1.8681 0.6467, 2.167 -1.8681 0.6315, 2.1492 -1.8681 0.619, 2.1446 -1.8681 0.6172, 2.3059 -1.8681 0.7201, 2.3121 -1.8681 0.7225, 2.3226 -1.8681 0.7736, 2.4517 -1.8681 0.7082, 2.4273 -1.8681 0.6875, 2.1747 -1.8681 0.7584, 2.2948 -1.8681 0.8211, 2.159 -1.8681 0.7726, 2.14 -1.8681 0.7828, 2.3004 -1.8681 0.7162, 2.4695 -1.8681 0.733, 2.4288 -1.8681 0.8004, 2.4246 -1.8681 0.8176, 2.4178 -1.8681 0.8303, 1.9716 -1.8681 0.8303, 2.4777 -1.8681 0.8303, 2.4808 -1.8681 0.8226, 2.5365 -1.8681 0.8303, 2.4849 -1.8681 0.7933, 2.4808 -1.8681 0.7614, 2.319 -1.8681 0.7234, 2.3199 -1.8681 0.7233, 2.3226 -1.8681 0.7227, 1.9769 -1.8681 0.7763, 1.9875 -1.8681 0.7583, 2.0331 -1.8681 0.7489, 2.0036 -1.8681 0.7417, 2.0232 -1.8681 0.7297, 2.0662 -1.8681 0.7786, 2.0479 -1.8681 0.7659, 1.9694 -1.8681 0.8122, 1.9705 -1.8681 0.7982, 2.086 -1.8681 0.7862, 2.1075 -1.8681 0.7888, 2.1183 -1.8681 0.7882, 2.2912 -1.8681 0.6956, 2.2915 -1.8681 0.6991, 2.1971 -1.8681 0.7073, 2.2933 -1.8681 0.706, 2.2967 -1.8681 0.7121, 2.4111 -1.8681 0.745, 2.421 -1.8681 0.759, 2.4271 -1.8681 0.7749, 2.4293 -1.8681 0.7924, 2.3122 -1.8681 0.6686, 2.3063 -1.8681 0.671, 2.3004 -1.8681 0.6751, 2.2984 -1.8681 0.6772, 2.2944 -1.8681 0.6828, 2.2921 -1.8681 0.6889, 2.1966 -1.8681 0.6888, 2.1971 -1.8681 0.6983, 2.4 -1.8681 0.6741, 2.3701 -1.8681 0.6678, 2.3172 -1.8681 0.6678, 2.3244 -1.8681 0.7225, 2.3648 -1.8681 0.7225, 2.3809 -1.8681 0.7256, 2.3967 -1.8681 0.733, 2.41 -1.8681 0.7438, 2.3522 -1.8681 0.8624, 1.9798 -1.8681 0.8539, 1.9721 -1.8681 0.8339, 2.3594 -1.8681 0.8624, 2.4162 -1.8681 0.8331, 2.406 -1.8681 0.8445, 2.3921 -1.8681 0.8542, 2.3765 -1.8681 0.8602, 2.3328 -1.8681 0.9163, 2.3126 -1.8681 0.9405, 2.1066 -1.8681 0.8884, 2.3104 -1.8681 0.9424, 2.2852 -1.8681 0.9599, 2.1203 -1.8681 0.9167, 1.9891 -1.8681 0.8672, 2.1003 -1.8681 0.8918, 2.3511 -1.8681 0.8672, 2.3467 -1.8681 0.8875, 2.0802 -1.8681 0.8992, 2.059 -1.8681 0.9018, 2.0496 -1.8681 0.9013, 2.1404 -1.8681 0.9408, 2.2571 -1.8681 0.9707, 2.1644 -1.8681 0.9583, 2.2267 -1.8681 0.9744, 2.1937 -1.8681 0.9702, 2.0275 -1.8681 0.896, 2.0075 -1.8681 0.8854, 1.9922 -1.8681 0.8717, 2.4698 -1.8681 0.85, 2.5365 -1.8681 0.8672, 2.4574 -1.8681 0.8672, 2.9607 -1.8681 0.9716, 2.9681 -1.8681 0.9601, 2.9547 -1.8681 0.9777, 2.9699 -1.8681 0.9088, 2.9633 -1.8681 0.8959, 2.9289 -1.8681 0.8716, 2.9289 -1.8681 0.8672, 2.9414 -1.8681 0.8764, 2.9547 -1.8681 0.8859, 2.9723 -1.8681 0.9476, 2.9738 -1.8681 0.9329, 2.9732 -1.8681 0.9233, 2.927 -1.8681 0.8708, 2.9058 -1.8681 0.8683, 2.8592 -1.8681 0.8672, 2.8711 -1.8681 0.8683, 2.8711 -1.8681 0.9944, 2.8592 -1.8681 3.9764, 2.9096 -1.8681 0.9943, 2.9286 -1.8681 0.9917, 2.9289 -1.8681 3.9764, 2.9289 -1.8681 0.9916, 2.9435 -1.8681 0.9856, 2.9071 -1.8681 0.9944, 2.9536 -1.8681 0.6826, 2.9772 -1.8681 0.6826, 2.9536 -1.8681 0.725, 2.9772 -1.8681 0.725, 3.0023 -1.8681 0.7943, 3.0023 -1.8681 0.7798, 3.0171 -1.8681 0.8303, 3.0052 -1.8681 0.6826, 3.0171 -1.8681 0.6672, 3.0052 -1.8681 0.6682, 2.9772 -1.8681 0.6672, 2.9987 -1.8681 0.725, 2.9987 -1.8681 0.7395, 2.9772 -1.8681 0.7798, 2.9772 -1.8681 0.6682, 2.9374 -1.8681 0.6682, 2.9289 -1.8681 0.6672, 2.9374 -1.8681 0.7943, 2.9772 -1.8681 0.7943, 2.9772 -1.8681 0.8303, 2.7957 -1.8681 0.8827, 2.8298 -1.8681 0.8827, 2.7957 -1.8681 0.9251, 2.8298 -1.8681 0.9251, 2.8473 -1.8681 0.8827, 2.8473 -1.8681 0.8683, 2.8298 -1.8681 0.8672, 2.8408 -1.8681 0.9251, 2.8408 -1.8681 0.9395, 2.8444 -1.8681 0.9799, 2.8298 -1.8681 0.9799, 2.8298 -1.8681 0.9395, 2.7957 -1.8681 0.9799, 2.7957 -1.8681 0.9395, 2.8298 -1.8681 0.8683, 2.7795 -1.8681 0.8683, 2.7795 -1.8681 0.9944, 2.8444 -1.8681 0.9944, 2.8298 -1.8681 0.9944, 2.8298 -1.8681 3.9764, 2.6579 -1.8681 3.9764, 2.6546 -1.8681 0.8827, 2.6546 -1.8681 0.8683, 2.5882 -1.8681 0.8683, 2.5882 -1.8681 0.9944, 2.6044 -1.8681 0.8827, 2.6044 -1.8681 0.9944, 2.6579 -1.8681 0.8303, 2.6579 -1.8681 0.6672, 2.656 -1.8681 0.6682, 2.5882 -1.8681 0.6682, 2.656 -1.8681 0.6826, 2.6531 -1.8681 0.7798, 2.6044 -1.8681 0.725, 2.6044 -1.8681 0.6826, 2.6495 -1.8681 0.725, 2.6495 -1.8681 0.7395, 2.6044 -1.8681 0.7395, 2.6044 -1.8681 0.7798, 2.5882 -1.8681 0.7943, 2.6531 -1.8681 0.7943, 2.9772 -1.8681 0.6172, 3.0171 -1.8681 0.6172, 3.2521 -1.8681 0.6682, 3.2341 -1.8681 0.6682, 3.0849 -1.8681 0.6708, 3.0637 -1.8681 0.6682, 3.1387 -1.8681 0.6682, 3.8681 -1.8681 0.6672, 3.8681 -1.8681 0.8303, 3.2041 -1.8681 0.7943, 3.2213 -1.8681 0.7027, 3.1688 -1.8681 0.7027, 3.1566 -1.8681 0.6682, 3.1867 -1.8681 0.7943, 3.029 -1.8681 0.6682, 3.029 -1.8681 0.7943, 3.065 -1.8681 0.7943, 3.1126 -1.8681 0.7776, 3.1186 -1.8681 0.7716, 3.126 -1.8681 0.7601, 3.1302 -1.8681 0.7476, 3.1212 -1.8681 0.6959, 3.1126 -1.8681 0.6859, 3.0993 -1.8681 0.6764, 3.0675 -1.8681 0.7943, 3.0865 -1.8681 0.7916, 3.1014 -1.8681 0.7856, 3.1317 -1.8681 0.7329, 3.1311 -1.8681 0.7233, 3.1278 -1.8681 0.7088, 2.9772 -1.8681 0.2362, 2.9289 -1.8681 0.2362, 2.8592 -1.8681 0.2362, 2.8298 -1.8681 0.2362, 2.7722 -1.8681 0.2362, 2.6654 -1.8681 0.2362, 2.6579 -1.8681 0.2362
            ]
        }
        coordIndex [
            0,1,2,-1,3,4,5,-1,6,7,8,-1,9,10,11,-1,12,13,14,-1,15,16,17,-1,17,16,18,-1,17,18,19,-1,20,21,22,-1,16,23,18,-1,18,23,24,-1,18,24,25,-1,25,24,26,-1,25,26,27,-1,22,21,28,-1,28,21,29,-1,28,29,27,-1,27,29,30,-1,27,30,25,-1,31,32,33,-1,34,35,36,-1,35,37,36,-1,36,37,38,-1,36,38,39,-1,36,40,34,-1,34,40,41,-1,34,41,42,-1,43,44,45,-1,45,44,34,-1,45,34,46,-1,47,48,49,-1,49,48,50,-1,49,50,51,-1,51,52,49,-1,49,52,53,-1,49,53,33,-1,33,53,54,-1,33,54,31,-1,42,55,34,-1,34,55,56,-1,34,56,57,-1,58,59,34,-1,34,59,60,-1,34,60,46,-1,61,62,63,-1,64,65,45,-1,45,65,66,-1,45,66,43,-1,57,67,34,-1,34,67,68,-1,34,68,58,-1,61,63,45,-1,45,63,69,-1,45,69,64,-1,70,71,72,-1,72,71,73,-1,74,75,49,-1,49,75,76,-1,49,76,47,-1,77,78,79,-1,79,78,80,-1,79,80,81,-1,82,83,84,-1,84,83,85,-1,84,85,79,-1,79,85,86,-1,79,86,77,-1,87,88,89,-1,90,91,92,-1,89,93,87,-1,87,93,94,-1,87,94,95,-1,95,94,90,-1,95,90,96,-1,96,90,92,-1,97,98,11,-1,97,11,99,-1,98,97,93,-1,93,97,100,-1,93,100,94,-1,11,101,99,-1,99,101,102,-1,99,102,103,-1,104,105,101,-1,101,105,106,-1,101,106,102,-1,107,108,109,-1,101,110,111,-1,112,113,114,-1,114,113,115,-1,114,115,107,-1,107,115,116,-1,107,116,108,-1,111,117,101,-1,101,117,118,-1,101,118,104,-1,119,120,121,-1,119,121,122,-1,120,123,121,-1,121,123,124,-1,121,124,114,-1,114,124,125,-1,114,125,112,-1,126,127,128,-1,128,127,129,-1,130,131,132,-1,133,128,134,-1,134,128,130,-1,134,130,135,-1,135,130,132,-1,135,132,136,-1,133,137,128,-1,128,137,138,-1,128,138,126,-1,139,140,141,-1,141,140,142,-1,142,143,141,-1,141,143,144,-1,141,144,132,-1,132,144,145,-1,132,145,136,-1,146,147,139,-1,139,147,148,-1,139,148,140,-1,149,150,151,-1,151,150,152,-1,151,152,153,-1,154,155,156,-1,156,155,157,-1,156,157,152,-1,152,157,158,-1,152,158,153,-1,14,13,159,-1,13,160,159,-1,159,160,161,-1,159,161,156,-1,156,161,162,-1,156,162,154,-1,163,164,165,-1,165,164,14,-1,14,164,166,-1,14,166,12,-1,138,167,126,-1,126,167,168,-1,126,168,165,-1,165,168,169,-1,165,169,163,-1,170,171,172,-1,172,171,173,-1,172,173,174,-1,175,176,177,-1,11,178,179,-1,180,181,11,-1,11,181,182,-1,11,182,178,-1,183,184,185,-1,185,184,186,-1,185,186,98,-1,176,180,177,-1,177,180,11,-1,177,11,187,-1,187,11,98,-1,187,98,188,-1,188,98,186,-1,179,189,11,-1,11,189,190,-1,11,190,9,-1,191,192,193,-1,193,192,194,-1,193,194,195,-1,193,196,191,-1,191,196,197,-1,191,197,198,-1,198,199,191,-1,191,199,200,-1,191,200,201,-1,201,200,202,-1,201,202,203,-1,203,202,204,-1,203,204,177,-1,177,204,205,-1,177,205,175,-1,206,207,195,-1,195,207,208,-1,195,208,193,-1,209,210,211,-1,211,210,212,-1,213,214,185,-1,185,214,215,-1,185,215,183,-1,216,217,218,-1,218,217,219,-1,218,219,7,-1,220,221,222,-1,222,221,223,-1,222,223,219,-1,209,224,210,-1,210,224,225,-1,210,225,226,-1,226,225,227,-1,228,229,227,-1,227,229,230,-1,227,230,226,-1,231,232,233,-1,233,232,234,-1,233,234,235,-1,236,237,238,-1,238,237,239,-1,238,239,240,-1,235,241,233,-1,233,241,242,-1,233,242,243,-1,244,84,245,-1,245,84,246,-1,247,248,222,-1,222,248,249,-1,222,249,220,-1,243,250,233,-1,233,250,251,-1,233,251,84,-1,84,251,212,-1,84,212,246,-1,246,212,210,-1,244,252,84,-1,84,252,253,-1,84,253,254,-1,255,256,227,-1,227,256,257,-1,227,257,258,-1,217,259,239,-1,239,259,260,-1,239,260,240,-1,39,82,185,-1,185,82,84,-1,185,84,213,-1,213,84,254,-1,213,254,238,-1,238,254,261,-1,238,261,236,-1,258,262,227,-1,227,262,263,-1,227,263,228,-1,264,265,266,-1,266,265,267,-1,266,267,216,-1,216,267,268,-1,216,268,217,-1,217,268,269,-1,217,269,259,-1,270,271,264,-1,264,271,272,-1,264,272,265,-1,270,273,271,-1,271,273,274,-1,271,274,275,-1,275,274,276,-1,275,277,278,-1,276,279,275,-1,275,279,280,-1,275,280,281,-1,281,282,275,-1,275,282,283,-1,275,283,277,-1,278,284,275,-1,275,284,285,-1,275,285,286,-1,6,8,287,-1,287,8,288,-1,287,288,289,-1,289,288,10,-1,10,288,107,-1,10,107,11,-1,11,107,109,-1,11,109,101,-1,101,109,290,-1,101,290,110,-1,7,219,8,-1,8,219,223,-1,8,223,288,-1,288,223,291,-1,288,291,231,-1,231,291,292,-1,231,292,232,-1,293,294,295,-1,296,297,295,-1,295,297,298,-1,299,300,295,-1,295,300,301,-1,295,301,296,-1,298,302,295,-1,295,302,303,-1,295,303,293,-1,304,305,152,-1,152,305,306,-1,152,306,295,-1,307,308,295,-1,295,308,309,-1,295,309,299,-1,306,310,295,-1,295,310,311,-1,295,311,307,-1,307,311,312,-1,307,312,313,-1,314,150,139,-1,139,150,149,-1,139,149,146,-1,314,315,150,-1,150,315,316,-1,150,316,152,-1,152,316,317,-1,152,317,304,-1,318,319,141,-1,141,319,320,-1,141,320,321,-1,321,322,141,-1,141,322,323,-1,141,323,139,-1,139,323,324,-1,139,324,314,-1,325,318,326,-1,326,318,141,-1,326,141,327,-1,327,141,328,-1,329,330,331,-1,331,330,332,-1,331,332,131,-1,131,332,333,-1,131,333,132,-1,132,333,334,-1,132,334,141,-1,141,334,335,-1,141,335,328,-1,0,336,1,-1,1,336,337,-1,1,337,338,-1,338,339,1,-1,1,339,340,-1,1,340,341,-1,342,343,344,-1,345,346,0,-1,347,348,349,-1,349,348,350,-1,342,344,351,-1,345,0,352,-1,353,354,348,-1,348,354,355,-1,348,355,356,-1,357,358,359,-1,359,358,360,-1,359,360,0,-1,0,360,361,-1,0,361,352,-1,343,362,344,-1,344,362,363,-1,344,363,364,-1,365,366,367,-1,367,366,368,-1,367,368,369,-1,370,356,371,-1,371,356,372,-1,371,372,367,-1,367,372,373,-1,367,373,365,-1,370,374,356,-1,356,374,375,-1,356,375,348,-1,348,375,376,-1,348,376,350,-1,377,378,379,-1,379,378,380,-1,379,380,344,-1,344,380,381,-1,344,381,351,-1,382,383,344,-1,344,383,384,-1,344,384,348,-1,348,384,385,-1,348,385,353,-1,386,387,336,-1,336,387,388,-1,336,388,389,-1,389,390,336,-1,336,390,391,-1,336,391,392,-1,392,391,377,-1,392,377,393,-1,393,377,379,-1,346,394,0,-1,0,394,395,-1,0,395,336,-1,336,395,396,-1,336,396,386,-1,364,397,344,-1,344,397,398,-1,344,398,399,-1,399,400,344,-1,344,400,401,-1,344,401,382,-1,402,403,404,-1,404,356,402,-1,402,356,355,-1,402,355,405,-1,405,355,406,-1,406,407,405,-1,405,407,408,-1,405,408,409,-1,410,411,412,-1,411,413,412,-1,412,413,414,-1,412,414,415,-1,416,412,417,-1,403,402,416,-1,416,402,418,-1,416,418,412,-1,412,418,419,-1,412,419,410,-1,417,420,416,-1,416,420,421,-1,416,421,422,-1,415,414,423,-1,423,414,424,-1,423,424,425,-1,425,424,426,-1,425,426,427,-1,428,429,422,-1,422,429,430,-1,422,430,416,-1,357,359,431,-1,431,359,432,-1,431,432,433,-1,434,435,30,-1,434,30,436,-1,25,437,438,-1,439,440,441,-1,441,440,25,-1,441,25,442,-1,442,25,438,-1,435,443,30,-1,30,443,444,-1,30,444,25,-1,25,444,445,-1,25,445,437,-1,439,446,440,-1,440,446,447,-1,440,447,448,-1,447,449,448,-1,448,449,450,-1,448,450,451,-1,452,453,454,-1,454,453,455,-1,454,455,30,-1,30,455,456,-1,30,456,436,-1,451,450,454,-1,454,450,457,-1,454,457,452,-1,458,459,460,-1,460,459,461,-1,462,463,464,-1,464,463,465,-1,464,465,466,-1,466,465,467,-1,466,467,468,-1,461,459,469,-1,469,459,465,-1,469,465,470,-1,470,465,463,-1,470,463,5,-1,5,463,471,-1,5,471,3,-1,467,472,468,-1,468,472,473,-1,468,473,474,-1,474,473,475,-1,462,464,476,-1,476,464,477,-1,476,477,475,-1,475,477,89,-1,475,89,474,-1,474,89,88,-1,474,88,122,-1,478,479,480,-1,480,479,481,-1,451,482,448,-1,448,482,483,-1,448,483,484,-1,481,479,485,-1,485,479,482,-1,485,482,486,-1,487,488,489,-1,489,488,490,-1,489,490,491,-1,483,492,484,-1,484,492,493,-1,484,493,36,-1,36,493,494,-1,489,486,487,-1,487,486,482,-1,487,482,495,-1,495,482,451,-1,495,451,496,-1,496,451,497,-1,496,497,494,-1,494,497,33,-1,494,33,36,-1,36,33,32,-1,36,32,40,-1,74,49,73,-1,73,49,498,-1,73,498,72,-1,72,498,499,-1,72,499,500,-1,432,501,502,-1,503,499,504,-1,504,499,498,-1,504,498,502,-1,502,498,295,-1,502,295,432,-1,432,295,294,-1,432,294,433,-1,359,505,432,-1,432,505,72,-1,432,72,501,-1,501,72,500,-1,506,507,508,-1,507,506,509,-1,509,506,505,-1,509,505,510,-1,511,512,513,-1,513,512,509,-1,513,509,514,-1,514,509,510,-1,514,510,515,-1,515,510,516,-1,2,506,0,-1,0,506,508,-1,0,508,359,-1,359,508,517,-1,359,517,505,-1,505,517,518,-1,505,518,510,-1,2,231,506,-1,506,231,233,-1,506,233,505,-1,505,233,84,-1,505,84,72,-1,72,84,79,-1,72,79,70,-1,70,79,81,-1,39,185,36,-1,36,185,98,-1,36,98,484,-1,484,98,93,-1,484,93,448,-1,448,93,89,-1,448,89,440,-1,440,89,477,-1,440,477,25,-1,25,477,464,-1,25,464,18,-1,122,121,474,-1,474,121,519,-1,474,519,468,-1,468,519,520,-1,468,520,466,-1,521,522,466,-1,523,524,525,-1,526,527,528,-1,529,530,522,-1,522,530,531,-1,522,531,466,-1,466,531,525,-1,22,19,20,-1,20,19,18,-1,20,18,527,-1,527,18,464,-1,527,464,528,-1,528,464,532,-1,525,524,466,-1,466,524,533,-1,466,533,464,-1,464,533,534,-1,464,534,535,-1,536,537,532,-1,532,537,538,-1,532,538,539,-1,540,541,525,-1,525,541,542,-1,525,542,523,-1,535,543,464,-1,464,543,544,-1,464,544,532,-1,532,544,545,-1,532,545,536,-1,539,546,532,-1,532,546,547,-1,532,547,525,-1,525,547,548,-1,525,548,540,-1,528,521,526,-1,526,521,466,-1,526,466,173,-1,173,466,520,-1,173,520,174,-1,174,520,519,-1,174,519,549,-1,549,519,121,-1,549,121,550,-1,550,121,114,-1,550,114,551,-1,551,114,107,-1,551,107,552,-1,552,107,288,-1,552,288,553,-1,553,288,231,-1,553,231,554,-1,554,231,2,-1,554,2,555,-1,555,2,1,-1,555,1,331,-1,331,1,341,-1,331,341,329,-1,
        ]
    }
}
Shape{
    appearance Appearance {
        material  Material 	{
            diffuseColor 0.6666666666666666 0.6666666666666666 0.6666666666666666
            specularColor 0.4666666666666667 0.4666666666666667 0.4666666666666667
            ambientIntensity 0.6667
            transparency 0.0
            shininess 0.5
        }
    }
    geometry IndexedFaceSet {
        ccw TRUE
        solid FALSE
        coord DEF co Coordinate {
            point [
                2.8996 -0.0551 -1.5748, 2.8996 0.0433 -1.5748, 3.0965 -0.0551 -1.5748, 3.0965 0.0433 -1.5748, 3.0965 0.0433 0.2362, 2.8996 0.0433 0.2362, 2.8996 -0.0551 0.2362, 3.0965 -0.0551 0.2362, 1.8996 -0.0551 -1.5748, 1.8996 0.0433 -1.5748, 2.0965 -0.0551 -1.5748, 2.0965 0.0433 -1.5748, 2.0965 0.0433 0.2362, 1.8996 0.0433 0.2362, 1.8996 -0.0551 0.2362, 2.0965 -0.0551 0.2362, 0.8996 -0.0551 -1.5748, 0.8996 0.0433 -1.5748, 1.0965 -0.0551 -1.5748, 1.0965 0.0433 -1.5748, 1.0965 0.0433 0.2362, 0.8996 0.0433 0.2362, 0.8996 -0.0551 0.2362, 1.0965 -0.0551 0.2362
            ]
        }
        coordIndex [
            0,1,2,-1,2,1,3,-1,3,1,4,-1,4,1,5,-1,1,0,5,-1,5,0,6,-1,0,2,6,-1,6,2,7,-1,2,3,7,-1,7,3,4,-1,8,9,10,-1,10,9,11,-1,11,9,12,-1,12,9,13,-1,9,8,13,-1,13,8,14,-1,8,10,14,-1,14,10,15,-1,10,11,15,-1,15,11,12,-1,16,17,18,-1,18,17,19,-1,19,17,20,-1,20,17,21,-1,17,16,21,-1,21,16,22,-1,16,18,22,-1,22,18,23,-1,18,19,23,-1,23,19,20,-1,
        ]
    }
}
Shape{
    appearance Appearance {
        material  Material 	{
            diffuseColor 0.20784313725490197 0.20784313725490197 0.20784313725490197
            specularColor 0.01568627450980392 0.01568627450980392 0.01568627450980392
            ambientIntensity 0.298
            transparency 0.0
            shininess 0.5
        }
    }
    geometry IndexedFaceSet {
        ccw TRUE
        solid FALSE
        coord DEF co Coordinate {
            point [
                -2.1004 0.0433 0.2362, -3.5925 0.4941 0.2362, -0.502 0.4941 0.2362, 3.75 -1.8681 0.2362, 3.0171 -1.8681 0.2362, 3.75 -0.9616 0.2362, 2.9772 -1.8681 0.2362, 2.9289 -1.8681 0.2362, 2.8592 -1.8681 0.2362, 2.8298 -1.8681 0.2362, 2.7722 -1.8681 0.2362, 2.6654 -1.8681 0.2362, 2.6579 -1.8681 0.2362, -0.502 -0.9616 0.2362, 2.5365 -1.8681 0.2362, -3.5925 -1.8681 0.2362, -3.5925 -0.9616 0.2362, -0.502 -1.8681 0.2362, -0.4979 -1.8681 0.2362, 3.75 0.4941 0.2362, 3.0965 -0.0551 0.2362, 2.8996 -0.0551 0.2362, 2.0965 -0.0551 0.2362, 2.0965 0.0433 0.2362, 2.8996 0.0433 0.2362, 3.0965 0.0433 0.2362, 1.8996 0.0433 0.2362, 1.8996 -0.0551 0.2362, 1.0965 -0.0551 0.2362, 1.0965 0.0433 0.2362, 0.8996 0.0433 0.2362, 0.8996 -0.0551 0.2362, -2.9035 -0.0551 0.2362, -3.1004 -0.0551 0.2362, -3.1004 0.0433 0.2362, -2.9035 0.0433 0.2362, -2.1004 -0.0551 0.2362, -1.9035 -0.0551 0.2362, -1.9035 0.0433 0.2362, 3.75 -1.8681 0.0394, 3.75 0.4941 0.0394, 3.8681 -1.8681 0.0394, 3.8681 0.4941 0.0394, 3.9391 -1.8235 0.0394, 3.9449 -1.8069 0.0394, 3.9469 -1.7894 0.0394, 3.9238 0.471 0.0394, 3.9363 0.4547 0.0394, 3.9442 0.4357 0.0394, 3.9297 -1.8385 0.0394, 3.9172 -1.8509 0.0394, 3.9023 -1.8603 0.0394, 3.8856 -1.8661 0.0394, 3.9075 0.4835 0.0394, 3.9469 0.4154 0.0394, 3.8885 0.4914 0.0394, 3.9469 0.4154 3.9764, 3.9469 -1.7894 3.9764, -3.5925 0.4941 0.0394, -3.7106 0.4941 0.0394, -3.7106 0.4941 3.9764, 3.8681 0.4941 3.9764, -3.7894 -1.7894 3.9764, -3.7894 0.4154 3.9764, -3.7894 -1.7894 0.0394, -3.7894 0.4154 0.0394, 3.8681 -1.7894 4.0551, 3.8681 0.4154 4.0551, -3.7106 -1.7894 4.0551, -3.7106 0.4154 4.0551, -3.7106 -1.8681 0.0394, -3.5925 -1.8681 0.0394, -3.731 0.4914 0.0394, -3.7867 0.4357 0.0394, -3.731 -1.8654 0.0394, -3.7867 -1.8098 0.0394, -3.75 -1.8576 0.0394, -3.7663 -1.8451 0.0394, -3.7788 -1.8287 0.0394, -3.7788 0.4547 0.0394, -3.7663 0.471 0.0394, -3.75 0.4835 0.0394
            ]
        }
        coordIndex [
            0,1,2,-1,3,4,5,-1,5,4,6,-1,5,6,7,-1,7,8,5,-1,5,8,9,-1,5,9,10,-1,10,11,5,-1,5,11,12,-1,5,12,13,-1,13,12,14,-1,15,16,17,-1,17,16,13,-1,17,13,18,-1,18,13,14,-1,19,5,20,-1,20,5,21,-1,22,23,24,-1,20,25,19,-1,19,25,24,-1,19,24,2,-1,2,24,23,-1,2,23,26,-1,24,21,22,-1,22,21,5,-1,22,5,27,-1,27,5,28,-1,27,28,26,-1,26,28,29,-1,26,29,2,-1,2,29,30,-1,2,30,13,-1,13,30,31,-1,13,31,5,-1,5,31,28,-1,32,13,33,-1,33,13,16,-1,33,16,34,-1,34,16,1,-1,34,1,35,-1,35,1,0,-1,35,0,32,-1,32,0,36,-1,32,36,13,-1,13,36,37,-1,13,37,2,-1,2,37,38,-1,2,38,0,-1,39,40,41,-1,41,40,42,-1,43,41,44,-1,44,41,45,-1,46,47,48,-1,43,49,50,-1,50,51,43,-1,43,51,52,-1,43,52,41,-1,46,48,53,-1,45,41,54,-1,54,41,42,-1,54,42,48,-1,48,42,55,-1,48,55,53,-1,56,57,54,-1,54,57,45,-1,42,40,19,-1,58,59,1,-1,1,59,60,-1,1,60,19,-1,19,60,61,-1,19,61,42,-1,62,63,64,-1,64,63,65,-1,66,67,68,-1,68,67,69,-1,59,58,70,-1,70,58,71,-1,72,59,73,-1,74,75,70,-1,70,75,64,-1,70,64,59,-1,59,64,65,-1,59,65,73,-1,74,76,75,-1,75,76,77,-1,75,77,78,-1,79,80,73,-1,73,80,81,-1,73,81,72,-1,3,19,39,-1,39,19,40,-1,1,15,58,-1,58,15,71,-1,
        ]
    }
}
Shape{
    appearance Appearance {
        material  Material 	{
            diffuseColor 0.34901960784313724 0.34901960784313724 0.34901960784313724
            specularColor 0.023529411764705882 0.023529411764705882 0.023529411764705882
            ambientIntensity 0.498
            transparency 0.0
            shininess 0.5
        }
    }
    geometry IndexedFaceSet {
        ccw TRUE
        solid FALSE
        coord DEF co Coordinate {
            point [
                -3.092 -1.8602 0.5818, -3.092 -1.8681 0.5818, -3.0446 -1.8602 0.5881, -3.0446 -1.8681 0.5881, -3.0004 -1.8602 0.6064, -3.0004 -1.8681 0.6064, -2.9624 -1.8602 0.6355, -2.9624 -1.8681 0.6355, -2.9333 -1.8602 0.6735, -2.9333 -1.8681 0.6735, -2.915 -1.8602 0.7177, -2.915 -1.8681 0.7177, -2.9087 -1.8602 0.7651, -2.9087 -1.8681 0.7651, -2.915 -1.8602 0.8126, -2.915 -1.8681 0.8126, -2.9333 -1.8602 0.8568, -2.9333 -1.8681 0.8568, -2.9624 -1.8602 0.8947, -2.9624 -1.8681 0.8947, -3.0004 -1.8602 0.9239, -3.0004 -1.8681 0.9239, -3.0446 -1.8602 0.9422, -3.0446 -1.8681 0.9422, -3.092 -1.8602 0.9484, -3.092 -1.8681 0.9484, -3.1395 -1.8602 0.9422, -3.1395 -1.8681 0.9422, -3.1837 -1.8602 0.9239, -3.1837 -1.8681 0.9239, -3.2216 -1.8602 0.8947, -3.2216 -1.8681 0.8947, -3.2508 -1.8602 0.8568, -3.2508 -1.8681 0.8568, -3.2691 -1.8602 0.8126, -3.2691 -1.8681 0.8126, -3.2753 -1.8602 0.7651, -3.2753 -1.8681 0.7651, -3.2691 -1.8602 0.7177, -3.2691 -1.8681 0.7177, -3.2508 -1.8602 0.6735, -3.2508 -1.8681 0.6735, -3.2216 -1.8602 0.6355, -3.2216 -1.8681 0.6355, -3.1837 -1.8602 0.6064, -3.1837 -1.8681 0.6064, -3.1395 -1.8602 0.5881, -3.1395 -1.8681 0.5881, -3.092 -1.8602 0.7651
            ]
        }
        coordIndex [
            0,1,2,-1,2,1,3,-1,2,3,4,-1,4,3,5,-1,4,5,6,-1,6,5,7,-1,6,7,8,-1,8,7,9,-1,8,9,10,-1,10,9,11,-1,10,11,12,-1,12,11,13,-1,12,13,14,-1,14,13,15,-1,14,15,16,-1,16,15,17,-1,16,17,18,-1,18,17,19,-1,18,19,20,-1,20,19,21,-1,20,21,22,-1,22,21,23,-1,22,23,24,-1,24,23,25,-1,24,25,26,-1,26,25,27,-1,26,27,28,-1,28,27,29,-1,28,29,30,-1,30,29,31,-1,30,31,32,-1,32,31,33,-1,32,33,34,-1,34,33,35,-1,34,35,36,-1,36,35,37,-1,36,37,38,-1,38,37,39,-1,38,39,40,-1,40,39,41,-1,40,41,42,-1,42,41,43,-1,42,43,44,-1,44,43,45,-1,44,45,46,-1,46,45,47,-1,46,47,0,-1,0,47,1,-1,44,46,48,-1,48,46,0,-1,48,0,2,-1,38,40,48,-1,48,40,42,-1,48,42,44,-1,32,34,48,-1,48,34,36,-1,48,36,38,-1,26,28,48,-1,48,28,30,-1,48,30,32,-1,20,22,48,-1,48,22,24,-1,48,24,26,-1,14,16,48,-1,48,16,18,-1,48,18,20,-1,8,10,48,-1,48,10,12,-1,48,12,14,-1,2,4,48,-1,48,4,6,-1,48,6,8,-1,
        ]
    }
}
Shape{
    appearance Appearance {
        material  Material 	{
            diffuseColor 0.20784313725490197 0.20784313725490197 0.20784313725490197
            specularColor 0.01568627450980392 0.01568627450980392 0.01568627450980392
            ambientIntensity 0.298
            transparency 0.0
            shininess 0.5
        }
    }
    geometry IndexedFaceSet {
        ccw TRUE
        solid FALSE
        coord DEF co Coordinate {
            point [
                -3.7106 0.4941 3.9764, -3.7106 0.4941 0.0394, -3.731 0.4914 0.0394, -3.731 0.4914 3.9764, -3.75 0.4835 0.0394, -3.75 0.4835 3.9764, -3.7663 0.471 0.0394, -3.7663 0.471 3.9764, -3.7788 0.4547 0.0394, -3.7788 0.4547 3.9764, -3.7867 0.4357 0.0394, -3.7867 0.4357 3.9764, -3.7894 0.4154 0.0394, -3.7894 0.4154 3.9764, 3.8681 0.4941 3.9764, -3.7106 0.4914 3.9968, 3.8681 0.4914 3.9968, -3.7106 0.4835 4.0158, 3.8681 0.4835 4.0158, -3.7106 0.471 4.0321, 3.8681 0.471 4.0321, -3.7106 0.4547 4.0446, 3.8681 0.4547 4.0446, -3.7106 0.4357 4.0524, 3.8681 0.4357 4.0524, -3.7106 0.4154 4.0551, 3.8681 0.4154 4.0551, 3.9469 0.4154 3.9764, 3.9469 0.4154 0.0394, 3.9442 0.4357 0.0394, 3.9442 0.4357 3.9764, 3.9363 0.4547 0.0394, 3.9363 0.4547 3.9764, 3.9238 0.471 0.0394, 3.9238 0.471 3.9764, 3.9075 0.4835 0.0394, 3.9075 0.4835 3.9764, 3.8885 0.4914 0.0394, 3.8885 0.4914 3.9764, 3.8681 0.4941 0.0394, -3.7867 0.4154 3.9968, -3.7841 0.435 3.9968, -3.7447 0.435 4.0446, -3.7283 0.4255 4.0524, -3.725 0.4298 4.0524, -3.7159 0.435 4.0524, -3.7303 0.4206 4.0524, -3.7487 0.4255 4.0446, -3.7644 0.4298 4.0321, -3.731 0.4154 4.0524, -3.7385 0.4432 4.0446, -3.7208 0.433 4.0524, -3.7303 0.4494 4.0446, -3.7208 0.4534 4.0446, -3.75 0.4154 4.0446, -3.7663 0.4154 4.0321, -3.7788 0.4154 4.0158, -3.7588 0.4432 4.0321, -3.75 0.4547 4.0321, -3.7385 0.4636 4.0321, -3.725 0.4691 4.0321, -3.7765 0.433 4.0158, -3.7697 0.4494 4.0158, -3.7588 0.4636 4.0158, -3.7447 0.4744 4.0158, -3.7283 0.4812 4.0158, -3.7765 0.4534 3.9968, -3.7644 0.4691 3.9968, -3.7487 0.4812 3.9968, -3.7303 0.4888 3.9968, 3.8878 0.4888 3.9968, 3.8878 0.4494 4.0446, 3.8783 0.433 4.0524, 3.8825 0.4298 4.0524, 3.8885 0.4154 4.0524, 3.8878 0.4206 4.0524, 3.8734 0.435 4.0524, 3.8783 0.4534 4.0446, 3.8825 0.4691 4.0321, 3.8959 0.4432 4.0446, 3.8858 0.4255 4.0524, 3.9022 0.435 4.0446, 3.9061 0.4255 4.0446, 3.9075 0.4154 4.0446, 3.8959 0.4636 4.0321, 3.9075 0.4547 4.0321, 3.9163 0.4432 4.0321, 3.9219 0.4298 4.0321, 3.9238 0.4154 4.0321, 3.8858 0.4812 4.0158, 3.9022 0.4744 4.0158, 3.9163 0.4636 4.0158, 3.9272 0.4494 4.0158, 3.934 0.433 4.0158, 3.9363 0.4154 4.0158, 3.9061 0.4812 3.9968, 3.9219 0.4691 3.9968, 3.934 0.4534 3.9968, 3.9416 0.435 3.9968, 3.9442 0.4154 3.9968, -3.7894 -1.7894 3.9764, -3.7894 -1.7894 0.0394, -3.7867 -1.8098 0.0394, -3.7867 -1.8098 3.9764, -3.7788 -1.8287 0.0394, -3.7788 -1.8287 3.9764, -3.7663 -1.8451 0.0394, -3.7663 -1.8451 3.9764, -3.75 -1.8576 0.0394, -3.75 -1.8576 3.9764, -3.731 -1.8654 0.0394, -3.731 -1.8654 3.9764, -3.7106 -1.8681 0.0394, -3.7106 -1.8681 3.9764, -3.7867 -1.7894 3.9968, -3.7788 -1.7894 4.0158, -3.7663 -1.7894 4.0321, -3.75 -1.7894 4.0446, -3.731 -1.7894 4.0524, -3.7106 -1.7894 4.0551, 3.9469 -1.7894 3.9764, 3.9442 -1.7894 3.9968, 3.9363 -1.7894 4.0158, 3.9238 -1.7894 4.0321, 3.9075 -1.7894 4.0446, 3.8885 -1.7894 4.0524, 3.8681 -1.7894 4.0551, 3.8681 -1.8681 0.0394, 3.8856 -1.8661 0.0394, 3.8681 -1.8681 3.9764, 3.8856 -1.8658 3.9764, 3.8885 -1.8654 3.9764, 3.9023 -1.8603 0.0394, 3.9021 -1.8598 3.9764, 3.9075 -1.8576 3.9764, 3.9172 -1.8509 0.0394, 3.9168 -1.8504 3.9764, 3.9297 -1.8385 0.0394, 3.9291 -1.8381 3.9764, 3.9238 -1.8451 3.9764, 3.9445 -1.8069 3.9764, 3.9442 -1.8098 3.9764, 3.9391 -1.8235 0.0394, 3.9385 -1.8233 3.9764, 3.9363 -1.8287 3.9764, 3.9449 -1.8069 0.0394, 3.9469 -1.7894 0.0394, -3.7106 -1.8654 3.9968, -3.7303 -1.8628 3.9968, -3.7303 -1.8235 4.0446, -3.7208 -1.807 4.0524, -3.725 -1.8038 4.0524, -3.7303 -1.7946 4.0524, -3.7159 -1.8091 4.0524, -3.7208 -1.8274 4.0446, -3.725 -1.8432 4.0321, -3.7106 -1.8098 4.0524, -3.7385 -1.8172 4.0446, -3.7283 -1.7996 4.0524, -3.7447 -1.8091 4.0446, -3.7487 -1.7996 4.0446, -3.7106 -1.8287 4.0446, -3.7106 -1.8451 4.0321, -3.7106 -1.8576 4.0158, -3.7385 -1.8376 4.0321, -3.75 -1.8287 4.0321, -3.7588 -1.8172 4.0321, -3.7644 -1.8038 4.0321, -3.7283 -1.8552 4.0158, -3.7447 -1.8484 4.0158, -3.7588 -1.8376 4.0158, -3.7697 -1.8235 4.0158, -3.7765 -1.807 4.0158, -3.7487 -1.8552 3.9968, -3.7644 -1.8432 3.9968, -3.7765 -1.8274 3.9968, -3.7841 -1.8091 3.9968, 3.8878 -1.8628 3.9968, 3.9061 -1.8552 3.9968, 3.9219 -1.8432 3.9968, 3.934 -1.8274 3.9968, 3.9416 -1.8091 3.9968, 3.934 -1.807 4.0158, 3.9219 -1.8038 4.0321, 3.9061 -1.7996 4.0446, 3.8878 -1.7946 4.0524, 3.9272 -1.8235 4.0158, 3.9163 -1.8172 4.0321, 3.9022 -1.8091 4.0446, 3.8858 -1.7996 4.0524, 3.9163 -1.8376 4.0158, 3.9075 -1.8287 4.0321, 3.8959 -1.8172 4.0446, 3.8825 -1.8038 4.0524, 3.9022 -1.8484 4.0158, 3.8959 -1.8376 4.0321, 3.8878 -1.8235 4.0446, 3.8783 -1.807 4.0524, 3.8858 -1.8552 4.0158, 3.8825 -1.8432 4.0321, 3.8783 -1.8274 4.0446, 3.8734 -1.8091 4.0524, 3.8681 -1.8654 3.9968, 3.8681 -1.8576 4.0158, 3.8681 -1.8451 4.0321, 3.8681 -1.8287 4.0446, 3.8681 -1.8098 4.0524
            ]
        }
        coordIndex [
            0,1,2,-1,0,2,3,-1,3,2,4,-1,3,4,5,-1,5,4,6,-1,5,6,7,-1,7,6,8,-1,7,8,9,-1,9,8,10,-1,9,10,11,-1,11,10,12,-1,11,12,13,-1,14,0,15,-1,14,15,16,-1,16,15,17,-1,16,17,18,-1,18,17,19,-1,18,19,20,-1,20,19,21,-1,20,21,22,-1,22,21,23,-1,22,23,24,-1,24,23,25,-1,24,25,26,-1,27,28,29,-1,27,29,30,-1,30,29,31,-1,30,31,32,-1,32,31,33,-1,32,33,34,-1,34,33,35,-1,34,35,36,-1,36,35,37,-1,36,37,38,-1,38,37,39,-1,38,39,14,-1,13,40,41,-1,42,43,44,-1,25,23,45,-1,44,43,25,-1,46,25,43,-1,46,43,47,-1,47,43,42,-1,47,42,48,-1,49,25,46,-1,50,51,52,-1,52,51,45,-1,52,45,53,-1,53,45,23,-1,53,23,21,-1,49,46,54,-1,54,46,47,-1,54,47,55,-1,55,47,48,-1,55,48,56,-1,57,50,58,-1,58,50,52,-1,58,52,59,-1,59,52,53,-1,59,53,60,-1,60,53,21,-1,60,21,19,-1,61,57,62,-1,62,57,58,-1,62,58,63,-1,63,58,59,-1,63,59,64,-1,64,59,60,-1,64,60,65,-1,65,60,19,-1,65,19,17,-1,40,61,41,-1,41,61,62,-1,41,62,66,-1,66,62,63,-1,66,63,67,-1,67,63,64,-1,67,64,68,-1,68,64,65,-1,68,65,69,-1,69,65,17,-1,69,17,15,-1,13,41,11,-1,11,41,66,-1,11,66,9,-1,9,66,67,-1,9,67,7,-1,7,67,68,-1,7,68,5,-1,5,68,69,-1,5,69,3,-1,3,69,15,-1,3,15,0,-1,51,25,45,-1,40,56,61,-1,61,56,48,-1,61,48,57,-1,57,48,42,-1,57,42,50,-1,50,42,44,-1,50,44,51,-1,51,44,25,-1,14,16,70,-1,71,72,73,-1,26,74,75,-1,73,72,26,-1,76,26,72,-1,76,72,77,-1,77,72,71,-1,77,71,78,-1,24,26,76,-1,79,80,81,-1,81,80,75,-1,81,75,82,-1,82,75,74,-1,82,74,83,-1,24,76,22,-1,22,76,77,-1,22,77,20,-1,20,77,78,-1,20,78,18,-1,84,79,85,-1,85,79,81,-1,85,81,86,-1,86,81,82,-1,86,82,87,-1,87,82,83,-1,87,83,88,-1,89,84,90,-1,90,84,85,-1,90,85,91,-1,91,85,86,-1,91,86,92,-1,92,86,87,-1,92,87,93,-1,93,87,88,-1,93,88,94,-1,16,89,70,-1,70,89,90,-1,70,90,95,-1,95,90,91,-1,95,91,96,-1,96,91,92,-1,96,92,97,-1,97,92,93,-1,97,93,98,-1,98,93,94,-1,98,94,99,-1,14,70,38,-1,38,70,95,-1,38,95,36,-1,36,95,96,-1,36,96,34,-1,34,96,97,-1,34,97,32,-1,32,97,98,-1,32,98,30,-1,30,98,99,-1,30,99,27,-1,80,26,75,-1,16,18,89,-1,89,18,78,-1,89,78,84,-1,84,78,71,-1,84,71,79,-1,79,71,73,-1,79,73,80,-1,80,73,26,-1,100,101,102,-1,100,102,103,-1,103,102,104,-1,103,104,105,-1,105,104,106,-1,105,106,107,-1,107,106,108,-1,107,108,109,-1,109,108,110,-1,109,110,111,-1,111,110,112,-1,111,112,113,-1,13,100,114,-1,13,114,40,-1,40,114,115,-1,40,115,56,-1,56,115,116,-1,56,116,55,-1,55,116,117,-1,55,117,54,-1,54,117,118,-1,54,118,49,-1,49,118,119,-1,49,119,25,-1,120,27,99,-1,120,99,121,-1,121,99,94,-1,121,94,122,-1,122,94,88,-1,122,88,123,-1,123,88,83,-1,123,83,124,-1,124,83,74,-1,124,74,125,-1,125,74,26,-1,125,26,126,-1,127,128,129,-1,129,128,130,-1,130,128,131,-1,131,128,132,-1,131,132,133,-1,133,132,134,-1,134,132,135,-1,134,135,136,-1,137,138,135,-1,135,138,139,-1,135,139,136,-1,140,141,142,-1,142,141,143,-1,142,143,137,-1,137,143,144,-1,137,144,138,-1,142,145,140,-1,140,145,146,-1,140,146,120,-1,113,147,148,-1,149,150,151,-1,119,118,152,-1,151,150,119,-1,153,119,150,-1,153,150,154,-1,154,150,149,-1,154,149,155,-1,156,119,153,-1,157,158,159,-1,159,158,152,-1,159,152,160,-1,160,152,118,-1,160,118,117,-1,156,153,161,-1,161,153,154,-1,161,154,162,-1,162,154,155,-1,162,155,163,-1,164,157,165,-1,165,157,159,-1,165,159,166,-1,166,159,160,-1,166,160,167,-1,167,160,117,-1,167,117,116,-1,168,164,169,-1,169,164,165,-1,169,165,170,-1,170,165,166,-1,170,166,171,-1,171,166,167,-1,171,167,172,-1,172,167,116,-1,172,116,115,-1,147,168,148,-1,148,168,169,-1,148,169,173,-1,173,169,170,-1,173,170,174,-1,174,170,171,-1,174,171,175,-1,175,171,172,-1,175,172,176,-1,176,172,115,-1,176,115,114,-1,113,148,111,-1,111,148,173,-1,111,173,109,-1,109,173,174,-1,109,174,107,-1,107,174,175,-1,107,175,105,-1,105,175,176,-1,105,176,103,-1,103,176,114,-1,103,114,100,-1,158,119,152,-1,147,163,168,-1,168,163,155,-1,168,155,164,-1,164,155,149,-1,164,149,157,-1,157,149,151,-1,157,151,158,-1,158,151,119,-1,130,131,177,-1,133,134,178,-1,136,139,179,-1,138,144,180,-1,143,141,181,-1,140,120,121,-1,141,140,181,-1,181,140,121,-1,181,121,182,-1,182,121,122,-1,182,122,183,-1,183,122,123,-1,183,123,184,-1,184,123,124,-1,184,124,185,-1,185,124,125,-1,185,125,126,-1,144,143,180,-1,180,143,181,-1,180,181,186,-1,186,181,182,-1,186,182,187,-1,187,182,183,-1,187,183,188,-1,188,183,184,-1,188,184,189,-1,189,184,185,-1,189,185,126,-1,139,138,179,-1,179,138,180,-1,179,180,190,-1,190,180,186,-1,190,186,191,-1,191,186,187,-1,191,187,192,-1,192,187,188,-1,192,188,193,-1,193,188,189,-1,193,189,126,-1,134,136,178,-1,178,136,179,-1,178,179,194,-1,194,179,190,-1,194,190,195,-1,195,190,191,-1,195,191,196,-1,196,191,192,-1,196,192,197,-1,197,192,193,-1,197,193,126,-1,131,133,177,-1,177,133,178,-1,177,178,198,-1,198,178,194,-1,198,194,199,-1,199,194,195,-1,199,195,200,-1,200,195,196,-1,200,196,201,-1,201,196,197,-1,201,197,126,-1,129,130,202,-1,202,130,177,-1,202,177,203,-1,203,177,198,-1,203,198,204,-1,204,198,199,-1,204,199,205,-1,205,199,200,-1,205,200,206,-1,206,200,201,-1,206,201,126,-1,113,129,202,-1,113,202,147,-1,147,202,203,-1,147,203,163,-1,163,203,204,-1,163,204,162,-1,162,204,205,-1,162,205,161,-1,161,205,206,-1,161,206,156,-1,156,206,126,-1,156,126,119,-1,
        ]
    }
}
Shape{
    appearance Appearance {
        material  Material 	{
            diffuseColor 0.6666666666666666 0.6666666666666666 0.6666666666666666
            specularColor 0.4666666666666667 0.4666666666666667 0.4666666666666667
            ambientIntensity 0.6667
            transparency 0.0
            shininess 0.5
        }
    }
    geometry IndexedFaceSet {
        ccw TRUE
        solid FALSE
        coord DEF co Coordinate {
            point [
                -2.9035 -0.0551 -1.5748, -2.9035 0.0433 -1.5748, -2.9035 -0.0551 0.2362, -2.9035 0.0433 0.2362, -3.1004 -0.0551 -1.5748, -3.1004 -0.0551 0.2362, -3.1004 0.0433 -1.5748, -3.1004 0.0433 0.2362, -1.9035 -0.0551 -1.5748, -1.9035 0.0433 -1.5748, -1.9035 -0.0551 0.2362, -1.9035 0.0433 0.2362, -2.1004 -0.0551 -1.5748, -2.1004 -0.0551 0.2362, -2.1004 0.0433 -1.5748, -2.1004 0.0433 0.2362
            ]
        }
        coordIndex [
            0,1,2,-1,2,1,3,-1,4,0,5,-1,5,0,2,-1,6,4,7,-1,7,4,5,-1,1,6,3,-1,3,6,7,-1,4,6,0,-1,0,6,1,-1,8,9,10,-1,10,9,11,-1,12,8,13,-1,13,8,10,-1,14,12,15,-1,15,12,13,-1,9,14,11,-1,11,14,15,-1,12,14,8,-1,8,14,9,-1,
        ]
    }
}
Shape{
    appearance Appearance {
        material  Material 	{
            diffuseColor 1.0 1.0 1.0
            specularColor 0.8784313725490196 0.8784313725490196 0.8784313725490196
            ambientIntensity 1.0
            transparency 0.0
            shininess 0.5
        }
    }
    geometry IndexedFaceSet {
        ccw TRUE
        solid FALSE
        coord DEF co Coordinate {
            point [
                3.0803 -1.8721 0.7781, 3.0675 -1.8721 0.7943, 3.0643 -1.8721 0.7798, 3.065 -1.8721 0.7943, 3.0453 -1.8721 0.7798, 3.029 -1.8721 0.7943, 3.0453 -1.8721 0.6826, 3.029 -1.8721 0.6682, 3.0636 -1.8721 0.6826, 3.0637 -1.8721 0.6682, 3.0785 -1.8721 0.6841, 3.0849 -1.8721 0.6708, 3.0896 -1.8721 0.6878, 3.0993 -1.8721 0.6764, 3.0981 -1.8721 0.6931, 3.1126 -1.8721 0.6859, 3.1011 -1.8721 0.6958, 3.1077 -1.8721 0.7041, 3.1212 -1.8721 0.6959, 3.1119 -1.8721 0.7135, 3.1278 -1.8721 0.7088, 3.1142 -1.8721 0.7253, 3.1311 -1.8721 0.7233, 3.1145 -1.8721 0.7325, 3.1317 -1.8721 0.7329, 3.1131 -1.8721 0.7466, 3.1302 -1.8721 0.7476, 3.1097 -1.8721 0.7562, 3.126 -1.8721 0.7601, 3.105 -1.8721 0.7636, 3.1186 -1.8721 0.7716, 3.1007 -1.8721 0.768, 3.1126 -1.8721 0.7776, 3.0913 -1.8721 0.7742, 3.1014 -1.8721 0.7856, 3.0865 -1.8721 0.7916, 3.1126 -1.8681 0.6859, 3.1212 -1.8681 0.6959, 3.1278 -1.8681 0.7088, 3.1311 -1.8681 0.7233, 3.1317 -1.8681 0.7329, 3.1302 -1.8681 0.7476, 3.126 -1.8681 0.7601, 3.1186 -1.8681 0.7716, 3.1126 -1.8681 0.7776, 3.1014 -1.8681 0.7856, 3.0865 -1.8681 0.7916, 3.0675 -1.8681 0.7943, 3.065 -1.8681 0.7943, 3.029 -1.8681 0.7943, 3.029 -1.8681 0.6682, 3.0637 -1.8681 0.6682, 3.0849 -1.8681 0.6708, 3.0993 -1.8681 0.6764, 3.1007 -1.8681 0.768, 3.105 -1.8681 0.7636, 3.1097 -1.8681 0.7562, 3.1131 -1.8681 0.7466, 3.1145 -1.8681 0.7325, 3.0643 -1.8681 0.7798, 3.0803 -1.8681 0.7781, 3.0913 -1.8681 0.7742, 3.0453 -1.8681 0.7798, 3.0453 -1.8681 0.6826, 3.0636 -1.8681 0.6826, 3.1011 -1.8681 0.6958, 3.0981 -1.8681 0.6931, 3.0896 -1.8681 0.6878, 3.0785 -1.8681 0.6841, 3.1142 -1.8681 0.7253, 3.1119 -1.8681 0.7135, 3.1077 -1.8681 0.7041
            ]
        }
        coordIndex [
            0,1,2,-1,2,1,3,-1,2,3,4,-1,4,3,5,-1,4,5,6,-1,6,5,7,-1,6,7,8,-1,8,7,9,-1,8,9,10,-1,10,9,11,-1,10,11,12,-1,12,11,13,-1,12,13,14,-1,14,13,15,-1,14,15,16,-1,16,15,17,-1,17,15,18,-1,17,18,19,-1,19,18,20,-1,19,20,21,-1,21,20,22,-1,21,22,23,-1,23,22,24,-1,23,24,25,-1,25,24,26,-1,25,26,27,-1,27,26,28,-1,27,28,29,-1,29,28,30,-1,29,30,31,-1,31,30,32,-1,31,32,33,-1,33,32,34,-1,33,34,0,-1,0,34,35,-1,0,35,1,-1,15,36,37,-1,15,37,18,-1,18,37,38,-1,18,38,20,-1,20,38,39,-1,20,39,22,-1,22,39,40,-1,22,40,24,-1,24,40,41,-1,24,41,26,-1,26,41,42,-1,26,42,28,-1,28,42,43,-1,28,43,30,-1,30,43,44,-1,30,44,32,-1,32,44,45,-1,32,45,34,-1,34,45,46,-1,34,46,35,-1,35,46,47,-1,35,47,1,-1,1,47,48,-1,1,48,3,-1,5,3,49,-1,49,3,48,-1,7,5,50,-1,50,5,49,-1,9,7,51,-1,51,7,50,-1,9,51,52,-1,9,52,11,-1,11,52,53,-1,11,53,13,-1,13,53,36,-1,13,36,15,-1,31,54,55,-1,31,55,29,-1,29,55,56,-1,29,56,27,-1,27,56,57,-1,27,57,25,-1,25,57,58,-1,25,58,23,-1,2,59,60,-1,2,60,0,-1,0,60,61,-1,0,61,33,-1,33,61,54,-1,33,54,31,-1,2,4,59,-1,59,4,62,-1,4,6,62,-1,62,6,63,-1,6,8,63,-1,63,8,64,-1,16,65,66,-1,16,66,14,-1,14,66,67,-1,14,67,12,-1,12,67,68,-1,12,68,10,-1,10,68,64,-1,10,64,8,-1,23,58,69,-1,23,69,21,-1,21,69,70,-1,21,70,19,-1,19,70,71,-1,19,71,17,-1,17,71,65,-1,17,65,16,-1,
        ]
    }
}
Shape{
    appearance Appearance {
        material  Material 	{
            diffuseColor 0.20784313725490197 0.20784313725490197 0.20784313725490197
            specularColor 0.01568627450980392 0.01568627450980392 0.01568627450980392
            ambientIntensity 0.298
            transparency 0.0
            shininess 0.5
        }
    }
    geometry IndexedFaceSet {
        ccw TRUE
        solid FALSE
        coord DEF co Coordinate {
            point [
                3.0453 -1.8681 0.7798, 3.0453 -1.8681 0.6826, 3.0643 -1.8681 0.7798, 3.0636 -1.8681 0.6826, 3.0785 -1.8681 0.6841, 3.0896 -1.8681 0.6878, 3.0981 -1.8681 0.6931, 3.1011 -1.8681 0.6958, 3.1077 -1.8681 0.7041, 3.1119 -1.8681 0.7135, 3.1142 -1.8681 0.7253, 3.1145 -1.8681 0.7325, 3.1131 -1.8681 0.7466, 3.1097 -1.8681 0.7562, 3.105 -1.8681 0.7636, 3.1007 -1.8681 0.768, 3.0803 -1.8681 0.7781, 3.0913 -1.8681 0.7742
            ]
        }
        coordIndex [
            0,1,2,-1,2,1,3,-1,2,3,4,-1,4,5,2,-1,2,5,6,-1,2,6,7,-1,7,8,2,-1,2,8,9,-1,2,9,10,-1,10,11,2,-1,2,11,12,-1,2,12,13,-1,13,14,2,-1,2,14,15,-1,2,15,16,-1,16,15,17,-1,
        ]
    }
}
Shape{
    appearance Appearance {
        material  Material 	{
            diffuseColor 1.0 1.0 1.0
            specularColor 0.8784313725490196 0.8784313725490196 0.8784313725490196
            ambientIntensity 1.0
            transparency 0.0
            shininess 0.5
        }
    }
    geometry IndexedFaceSet {
        ccw TRUE
        solid FALSE
        coord DEF co Coordinate {
            point [
                2.8794 -1.8721 0.6905, 2.8794 -1.8681 0.6905, 2.8782 -1.8681 0.6863, 2.8782 -1.8721 0.6863, 2.8774 -1.8681 0.6832, 2.8774 -1.8721 0.6832, 2.877 -1.8721 0.6832, 2.877 -1.8681 0.6832, 2.8751 -1.8721 0.6906, 2.8751 -1.8681 0.6906, 2.8516 -1.8681 0.7583, 2.8516 -1.8721 0.7583, 2.8592 -1.8681 0.7364, 2.8339 -1.8721 0.7583, 2.8339 -1.8681 0.7583, 2.8692 -1.8681 0.6684, 2.8692 -1.8721 0.6684, 2.8592 -1.8681 0.694, 2.8623 -1.8681 0.6521, 2.8623 -1.8721 0.6521, 2.8687 -1.8681 0.6672, 2.8592 -1.8681 0.6464, 2.8592 -1.8721 0.6464, 2.8592 -1.8681 0.6464, 2.8563 -1.8721 0.6431, 2.8563 -1.8681 0.6431, 2.8534 -1.8681 0.6411, 2.8534 -1.8721 0.6411, 2.8499 -1.8681 0.6398, 2.8499 -1.8721 0.6398, 2.8461 -1.8681 0.6394, 2.8461 -1.8721 0.6394, 2.8404 -1.8681 0.6401, 2.8404 -1.8721 0.6401, 2.8371 -1.8681 0.6412, 2.8371 -1.8721 0.6412, 2.8371 -1.8721 0.6271, 2.8371 -1.8681 0.6271, 2.8438 -1.8681 0.626, 2.8438 -1.8721 0.626, 2.8473 -1.8681 0.6258, 2.8473 -1.8721 0.6258, 2.8537 -1.8681 0.6266, 2.8537 -1.8721 0.6266, 2.8592 -1.8681 0.6286, 2.8599 -1.8721 0.6289, 2.8599 -1.8681 0.6289, 2.8655 -1.8681 0.6328, 2.8655 -1.8721 0.6328, 2.8665 -1.8681 0.6338, 2.8665 -1.8721 0.6338, 2.8723 -1.8681 0.6407, 2.8723 -1.8721 0.6407, 2.8795 -1.8681 0.6546, 2.8795 -1.8721 0.6546, 2.9203 -1.8681 0.7583, 2.9203 -1.8721 0.7583, 2.8844 -1.8681 0.6672, 2.904 -1.8721 0.7583, 2.904 -1.8681 0.7583, 2.7893 -1.8721 0.6661, 2.7893 -1.8681 0.6661, 2.8026 -1.8721 0.6676, 2.799 -1.8681 0.6672, 2.8026 -1.8681 0.6676, 2.8111 -1.8681 0.6707, 2.8111 -1.8721 0.6707, 2.8155 -1.8681 0.6733, 2.8155 -1.8721 0.6733, 2.82 -1.8681 0.6772, 2.82 -1.8721 0.6772, 2.823 -1.8681 0.6814, 2.823 -1.8721 0.6814, 2.8249 -1.8681 0.6864, 2.8249 -1.8721 0.6864, 2.8257 -1.8681 0.6927, 2.8257 -1.8721 0.6927, 2.825 -1.8681 0.6986, 2.825 -1.8721 0.6986, 2.8233 -1.8681 0.7033, 2.8233 -1.8721 0.7033, 2.8204 -1.8681 0.7076, 2.8204 -1.8721 0.7076, 2.8166 -1.8681 0.711, 2.8166 -1.8721 0.711, 2.8061 -1.8681 0.7168, 2.8061 -1.8721 0.7168, 2.8 -1.8681 0.7193, 2.8 -1.8721 0.7193, 2.7902 -1.8681 0.7236, 2.7902 -1.8721 0.7236, 2.7847 -1.8681 0.727, 2.7847 -1.8721 0.727, 2.7831 -1.8681 0.7287, 2.7831 -1.8721 0.7287, 2.782 -1.8681 0.7309, 2.782 -1.8721 0.7309, 2.7814 -1.8681 0.7333, 2.7814 -1.8721 0.7333, 2.7812 -1.8681 0.7354, 2.7812 -1.8721 0.7354, 2.7815 -1.8681 0.7379, 2.7815 -1.8721 0.7379, 2.7823 -1.8681 0.7401, 2.7823 -1.8721 0.7401, 2.7836 -1.8681 0.7421, 2.7836 -1.8721 0.7421, 2.786 -1.8681 0.7442, 2.786 -1.8721 0.7442, 2.7896 -1.8681 0.7461, 2.7896 -1.8721 0.7461, 2.7938 -1.8681 0.7472, 2.7938 -1.8721 0.7472, 2.7985 -1.8681 0.7475, 2.7985 -1.8721 0.7475, 2.8098 -1.8681 0.7461, 2.8098 -1.8721 0.7461, 2.8187 -1.8681 0.7426, 2.8187 -1.8721 0.7426, 2.8214 -1.8681 0.741, 2.8214 -1.8721 0.741, 2.8214 -1.8721 0.7564, 2.8214 -1.8681 0.7564, 2.8098 -1.8681 0.7596, 2.8098 -1.8721 0.7596, 2.8 -1.8681 0.7604, 2.8 -1.8721 0.7604, 2.7877 -1.8681 0.7589, 2.7877 -1.8721 0.7589, 2.7791 -1.8681 0.7557, 2.7791 -1.8721 0.7557, 2.7751 -1.8681 0.7532, 2.7751 -1.8721 0.7532, 2.7704 -1.8721 0.749, 2.7722 -1.8681 0.7506, 2.7704 -1.8681 0.749, 2.7675 -1.8681 0.7447, 2.7675 -1.8721 0.7447, 2.7656 -1.8681 0.7397, 2.7656 -1.8721 0.7397, 2.7649 -1.8681 0.734, 2.7649 -1.8721 0.734, 2.7656 -1.8681 0.7279, 2.7656 -1.8721 0.7279, 2.7674 -1.8681 0.723, 2.7674 -1.8721 0.723, 2.7694 -1.8681 0.7198, 2.7694 -1.8721 0.7198, 2.7889 -1.8681 0.7078, 2.7889 -1.8721 0.7078, 2.7795 -1.8721 0.7121, 2.772 -1.8681 0.7171, 2.772 -1.8721 0.7171, 2.7722 -1.8681 0.717, 2.7795 -1.8681 0.7121, 2.7992 -1.8681 0.7035, 2.7992 -1.8721 0.7035, 2.8054 -1.8681 0.6998, 2.8054 -1.8721 0.6998, 2.8074 -1.8681 0.6977, 2.8074 -1.8721 0.6977, 2.8086 -1.8681 0.6956, 2.8086 -1.8721 0.6956, 2.8093 -1.8681 0.6932, 2.8093 -1.8721 0.6932, 2.8095 -1.8681 0.6912, 2.8095 -1.8721 0.6912, 2.8091 -1.8681 0.6882, 2.8091 -1.8721 0.6882, 2.8083 -1.8681 0.6859, 2.8083 -1.8721 0.6859, 2.807 -1.8681 0.6839, 2.807 -1.8721 0.6839, 2.8051 -1.8681 0.6823, 2.8051 -1.8721 0.6823, 2.8037 -1.8681 0.6814, 2.8037 -1.8721 0.6814, 2.7996 -1.8681 0.6799, 2.7996 -1.8721 0.6799, 2.7915 -1.8681 0.679, 2.7915 -1.8721 0.679, 2.7908 -1.8681 0.679, 2.7908 -1.8721 0.679, 2.7649 -1.8681 0.6877, 2.7649 -1.8721 0.6877, 2.77 -1.8721 0.6844, 2.7799 -1.8681 0.6804, 2.7799 -1.8721 0.6804, 2.7722 -1.8681 0.6836, 2.77 -1.8681 0.6844, 2.7649 -1.8721 0.6714, 2.7649 -1.8681 0.6714, 2.7758 -1.8721 0.6675, 2.7722 -1.8681 0.6688, 2.7792 -1.8681 0.6672, 2.7758 -1.8681 0.6675, 2.7272 -1.8721 0.6822, 2.7277 -1.8721 0.6822, 2.7266 -1.8721 0.6967, 2.7276 -1.8721 0.7038, 2.7434 -1.8721 0.7262, 2.7277 -1.8721 0.7048, 2.7277 -1.8721 0.7134, 2.7277 -1.8721 0.6682, 2.7434 -1.8721 0.6682, 2.6883 -1.8721 0.7185, 2.6935 -1.8721 0.7067, 2.6973 -1.8721 0.7085, 2.7243 -1.8721 0.6911, 2.7209 -1.8721 0.6864, 2.7248 -1.8721 0.6784, 2.7189 -1.8721 0.6845, 2.7198 -1.8721 0.6731, 2.7144 -1.8721 0.6815, 2.7142 -1.8721 0.6693, 2.7097 -1.8721 0.6797, 2.7078 -1.8721 0.667, 2.7037 -1.8721 0.6791, 2.6996 -1.8721 0.6661, 2.6984 -1.8721 0.6797, 2.6902 -1.8721 0.6672, 2.6948 -1.8721 0.681, 2.6841 -1.8721 0.6695, 2.6917 -1.8721 0.6831, 2.6788 -1.8721 0.6732, 2.6903 -1.8721 0.6845, 2.701 -1.8721 0.7218, 2.7066 -1.8721 0.7106, 2.7277 -1.8721 0.7255, 2.6799 -1.8721 0.752, 2.6799 -1.8721 0.7366, 2.6848 -1.8721 0.7547, 2.6904 -1.8721 0.7433, 2.6969 -1.8721 0.7589, 2.7003 -1.8721 0.7466, 2.7109 -1.8721 0.7604, 2.7094 -1.8721 0.7475, 2.7209 -1.8721 0.7594, 2.7148 -1.8721 0.747, 2.7275 -1.8721 0.7573, 2.7184 -1.8721 0.7457, 2.7326 -1.8721 0.7543, 2.7212 -1.8721 0.7439, 2.7361 -1.8721 0.751, 2.7236 -1.8721 0.7414, 2.7394 -1.8721 0.746, 2.7255 -1.8721 0.7381, 2.742 -1.8721 0.7391, 2.7271 -1.8721 0.7325, 2.6913 -1.8721 0.7051, 2.6818 -1.8721 0.715, 2.6894 -1.8721 0.7027, 2.6771 -1.8721 0.7108, 2.688 -1.8721 0.6998, 2.6738 -1.8721 0.7057, 2.6872 -1.8721 0.6962, 2.6719 -1.8721 0.6999, 2.6871 -1.8721 0.6936, 2.6711 -1.8721 0.6924, 2.6875 -1.8721 0.69, 2.6719 -1.8721 0.6852, 2.6885 -1.8721 0.6872, 2.6738 -1.8721 0.6799, 2.6771 -1.8721 0.675, 2.7094 -1.8681 0.7475, 2.7148 -1.8681 0.747, 2.7184 -1.8681 0.7457, 2.7212 -1.8681 0.7439, 2.7236 -1.8681 0.7414, 2.7255 -1.8681 0.7381, 2.7271 -1.8681 0.7325, 2.7277 -1.8681 0.7255, 2.701 -1.8681 0.7218, 2.6883 -1.8681 0.7185, 2.6818 -1.8681 0.715, 2.6771 -1.8681 0.7108, 2.6738 -1.8681 0.7057, 2.6719 -1.8681 0.6999, 2.6711 -1.8681 0.6924, 2.6719 -1.8681 0.6852, 2.6738 -1.8681 0.6799, 2.6771 -1.8681 0.675, 2.6788 -1.8681 0.6732, 2.6996 -1.8681 0.6661, 2.6905 -1.8681 0.6672, 2.6902 -1.8681 0.6672, 2.6841 -1.8681 0.6695, 2.7078 -1.8681 0.667, 2.7082 -1.8681 0.6672, 2.7142 -1.8681 0.6693, 2.7198 -1.8681 0.6731, 2.7248 -1.8681 0.6784, 2.7272 -1.8681 0.6822, 2.7277 -1.8681 0.6822, 2.7277 -1.8681 0.6682, 2.7434 -1.8681 0.6682, 2.7434 -1.8681 0.7262, 2.742 -1.8681 0.7391, 2.7394 -1.8681 0.746, 2.7361 -1.8681 0.751, 2.7326 -1.8681 0.7543, 2.7275 -1.8681 0.7573, 2.7209 -1.8681 0.7594, 2.7109 -1.8681 0.7604, 2.6969 -1.8681 0.7589, 2.6848 -1.8681 0.7547, 2.6799 -1.8681 0.752, 2.6799 -1.8681 0.7366, 2.6904 -1.8681 0.7433, 2.7003 -1.8681 0.7466, 2.7209 -1.8681 0.6864, 2.7189 -1.8681 0.6845, 2.7144 -1.8681 0.6815, 2.7097 -1.8681 0.6797, 2.7037 -1.8681 0.6791, 2.7277 -1.8681 0.7048, 2.7276 -1.8681 0.7038, 2.7266 -1.8681 0.6967, 2.7243 -1.8681 0.6911, 2.7277 -1.8681 0.7134, 2.7066 -1.8681 0.7106, 2.6913 -1.8681 0.7051, 2.6935 -1.8681 0.7067, 2.6973 -1.8681 0.7085, 2.6871 -1.8681 0.6936, 2.6872 -1.8681 0.6962, 2.688 -1.8681 0.6998, 2.6894 -1.8681 0.7027, 2.6917 -1.8681 0.6831, 2.6903 -1.8681 0.6845, 2.6885 -1.8681 0.6872, 2.6875 -1.8681 0.69, 2.6984 -1.8681 0.6797, 2.6948 -1.8681 0.681
            ]
        }
        coordIndex [
            0,1,2,-1,0,2,3,-1,3,2,4,-1,3,4,5,-1,6,5,7,-1,7,5,4,-1,8,6,9,-1,9,6,7,-1,10,11,12,-1,12,11,8,-1,12,8,9,-1,13,11,14,-1,14,11,10,-1,15,16,17,-1,17,16,13,-1,17,13,14,-1,18,19,20,-1,20,19,16,-1,20,16,15,-1,19,18,21,-1,19,21,22,-1,22,21,23,-1,22,23,24,-1,23,25,24,-1,24,25,26,-1,24,26,27,-1,27,26,28,-1,27,28,29,-1,29,28,30,-1,29,30,31,-1,31,30,32,-1,31,32,33,-1,33,32,34,-1,33,34,35,-1,36,35,37,-1,37,35,34,-1,36,37,38,-1,36,38,39,-1,39,38,40,-1,39,40,41,-1,41,40,42,-1,41,42,43,-1,43,42,44,-1,43,44,45,-1,44,46,45,-1,45,46,47,-1,45,47,48,-1,48,47,49,-1,48,49,50,-1,50,49,51,-1,50,51,52,-1,52,51,53,-1,52,53,54,-1,55,56,57,-1,57,56,54,-1,57,54,53,-1,58,56,59,-1,59,56,55,-1,0,58,1,-1,1,58,59,-1,3,5,54,-1,56,58,54,-1,54,58,0,-1,54,0,3,-1,11,13,8,-1,8,13,16,-1,8,16,6,-1,52,22,50,-1,50,22,24,-1,35,36,33,-1,33,36,39,-1,33,39,31,-1,31,39,41,-1,31,41,29,-1,29,41,43,-1,29,43,27,-1,27,43,45,-1,27,45,24,-1,24,45,48,-1,24,48,50,-1,5,6,54,-1,54,6,16,-1,54,16,52,-1,52,16,19,-1,52,19,22,-1,60,61,62,-1,62,61,63,-1,63,64,62,-1,62,64,65,-1,62,65,66,-1,66,65,67,-1,66,67,68,-1,68,67,69,-1,68,69,70,-1,70,69,71,-1,70,71,72,-1,72,71,73,-1,72,73,74,-1,74,73,75,-1,74,75,76,-1,76,75,77,-1,76,77,78,-1,78,77,79,-1,78,79,80,-1,80,79,81,-1,80,81,82,-1,82,81,83,-1,82,83,84,-1,84,83,85,-1,84,85,86,-1,86,85,87,-1,86,87,88,-1,88,87,89,-1,88,89,90,-1,90,89,91,-1,90,91,92,-1,92,91,93,-1,92,93,94,-1,94,93,95,-1,94,95,96,-1,96,95,97,-1,96,97,98,-1,98,97,99,-1,98,99,100,-1,100,99,101,-1,100,101,102,-1,102,101,103,-1,102,103,104,-1,104,103,105,-1,104,105,106,-1,106,105,107,-1,106,107,108,-1,108,107,109,-1,108,109,110,-1,110,109,111,-1,110,111,112,-1,112,111,113,-1,112,113,114,-1,114,113,115,-1,114,115,116,-1,116,115,117,-1,116,117,118,-1,118,117,119,-1,118,119,120,-1,121,120,122,-1,122,120,119,-1,121,122,123,-1,121,123,124,-1,124,123,125,-1,124,125,126,-1,126,125,127,-1,126,127,128,-1,128,127,129,-1,128,129,130,-1,130,129,131,-1,130,131,132,-1,132,131,133,-1,133,131,134,-1,134,135,133,-1,133,135,136,-1,133,136,137,-1,137,136,138,-1,137,138,139,-1,139,138,140,-1,139,140,141,-1,141,140,142,-1,141,142,143,-1,143,142,144,-1,143,144,145,-1,145,144,146,-1,145,146,147,-1,148,149,150,-1,147,146,151,-1,147,151,152,-1,152,151,153,-1,152,153,150,-1,150,153,154,-1,150,154,148,-1,149,148,155,-1,149,155,156,-1,156,155,157,-1,156,157,158,-1,158,157,159,-1,158,159,160,-1,160,159,161,-1,160,161,162,-1,162,161,163,-1,162,163,164,-1,164,163,165,-1,164,165,166,-1,166,165,167,-1,166,167,168,-1,168,167,169,-1,168,169,170,-1,170,169,171,-1,170,171,172,-1,172,171,173,-1,172,173,174,-1,174,173,175,-1,174,175,176,-1,176,175,177,-1,176,177,178,-1,178,177,179,-1,178,179,180,-1,180,179,181,-1,180,181,182,-1,183,184,185,-1,182,181,186,-1,182,186,187,-1,187,186,188,-1,187,188,185,-1,185,188,189,-1,185,189,183,-1,190,184,191,-1,191,184,183,-1,190,191,192,-1,192,191,193,-1,61,60,194,-1,194,60,192,-1,194,192,195,-1,195,192,193,-1,106,108,130,-1,130,108,128,-1,156,88,149,-1,149,88,90,-1,60,182,192,-1,192,182,187,-1,192,187,190,-1,190,187,185,-1,190,185,184,-1,108,110,128,-1,128,110,112,-1,128,112,126,-1,126,112,114,-1,126,114,124,-1,124,114,116,-1,124,116,121,-1,121,116,118,-1,121,118,120,-1,66,68,172,-1,172,68,70,-1,172,70,170,-1,170,70,72,-1,170,72,168,-1,168,72,74,-1,168,74,166,-1,166,74,76,-1,166,76,164,-1,164,76,78,-1,164,78,162,-1,162,78,80,-1,162,80,160,-1,160,80,82,-1,160,82,158,-1,158,82,84,-1,158,84,156,-1,156,84,86,-1,156,86,88,-1,172,174,66,-1,66,174,176,-1,66,176,62,-1,62,176,178,-1,62,178,60,-1,60,178,180,-1,60,180,182,-1,130,132,106,-1,106,132,133,-1,106,133,104,-1,104,133,137,-1,104,137,102,-1,102,137,139,-1,102,139,100,-1,100,139,141,-1,100,141,98,-1,98,141,143,-1,98,143,96,-1,96,143,145,-1,96,145,94,-1,94,145,147,-1,94,147,92,-1,92,147,152,-1,92,152,90,-1,90,152,150,-1,90,150,149,-1,196,197,198,-1,199,200,201,-1,201,200,202,-1,203,204,197,-1,197,204,200,-1,197,200,198,-1,198,200,199,-1,205,206,207,-1,198,208,196,-1,196,208,209,-1,196,209,210,-1,210,209,211,-1,210,211,212,-1,212,211,213,-1,212,213,214,-1,214,213,215,-1,214,215,216,-1,216,215,217,-1,216,217,218,-1,218,217,219,-1,218,219,220,-1,220,219,221,-1,220,221,222,-1,222,221,223,-1,222,223,224,-1,224,223,225,-1,205,207,226,-1,226,207,227,-1,226,227,228,-1,229,230,231,-1,231,230,232,-1,231,232,233,-1,233,232,234,-1,233,234,235,-1,235,234,236,-1,235,236,237,-1,237,236,238,-1,237,238,239,-1,239,238,240,-1,239,240,241,-1,241,240,242,-1,241,242,243,-1,243,242,244,-1,243,244,245,-1,245,244,246,-1,245,246,247,-1,247,246,248,-1,247,248,200,-1,200,248,228,-1,200,228,202,-1,202,228,227,-1,206,205,249,-1,249,205,250,-1,249,250,251,-1,251,250,252,-1,251,252,253,-1,253,252,254,-1,253,254,255,-1,255,254,256,-1,255,256,257,-1,257,256,258,-1,257,258,259,-1,259,258,260,-1,259,260,261,-1,261,260,262,-1,261,262,225,-1,225,262,263,-1,225,263,224,-1,236,264,265,-1,236,265,238,-1,238,265,266,-1,238,266,240,-1,240,266,267,-1,240,267,242,-1,242,267,268,-1,242,268,244,-1,244,268,269,-1,244,269,246,-1,246,269,270,-1,246,270,248,-1,248,270,271,-1,248,271,228,-1,226,228,272,-1,272,228,271,-1,226,272,273,-1,226,273,205,-1,205,273,274,-1,205,274,250,-1,250,274,275,-1,250,275,252,-1,252,275,276,-1,252,276,254,-1,254,276,277,-1,254,277,256,-1,256,277,278,-1,256,278,258,-1,258,278,279,-1,258,279,260,-1,260,279,280,-1,260,280,262,-1,262,280,281,-1,262,281,263,-1,263,281,282,-1,263,282,224,-1,283,218,284,-1,284,218,220,-1,284,220,285,-1,285,220,222,-1,285,222,286,-1,286,222,224,-1,286,224,282,-1,218,283,287,-1,218,287,216,-1,216,287,288,-1,216,288,214,-1,288,289,214,-1,214,289,290,-1,214,290,212,-1,212,290,291,-1,212,291,210,-1,210,291,292,-1,210,292,196,-1,197,196,293,-1,293,196,292,-1,203,197,294,-1,294,197,293,-1,204,203,295,-1,295,203,294,-1,200,204,296,-1,296,204,295,-1,200,296,297,-1,200,297,247,-1,247,297,298,-1,247,298,245,-1,245,298,299,-1,245,299,243,-1,243,299,300,-1,243,300,241,-1,241,300,301,-1,241,301,239,-1,239,301,302,-1,239,302,237,-1,237,302,303,-1,237,303,235,-1,235,303,304,-1,235,304,233,-1,233,304,305,-1,233,305,231,-1,231,305,306,-1,231,306,229,-1,230,229,307,-1,307,229,306,-1,230,307,308,-1,230,308,232,-1,232,308,309,-1,232,309,234,-1,234,309,264,-1,234,264,236,-1,209,310,311,-1,209,311,211,-1,211,311,312,-1,211,312,213,-1,213,312,313,-1,213,313,215,-1,215,313,314,-1,215,314,217,-1,201,315,316,-1,201,316,199,-1,199,316,317,-1,199,317,198,-1,198,317,318,-1,198,318,208,-1,208,318,310,-1,208,310,209,-1,201,202,315,-1,315,202,319,-1,202,227,319,-1,319,227,320,-1,249,321,322,-1,249,322,206,-1,206,322,323,-1,206,323,207,-1,207,323,320,-1,207,320,227,-1,257,324,325,-1,257,325,255,-1,255,325,326,-1,255,326,253,-1,253,326,327,-1,253,327,251,-1,251,327,321,-1,251,321,249,-1,223,328,329,-1,223,329,225,-1,225,329,330,-1,225,330,261,-1,261,330,331,-1,261,331,259,-1,259,331,324,-1,259,324,257,-1,217,314,332,-1,217,332,219,-1,219,332,333,-1,219,333,221,-1,221,333,328,-1,221,328,223,-1,
        ]
    }
}
Shape{
    appearance Appearance {
        material  Material 	{
            diffuseColor 0.20784313725490197 0.20784313725490197 0.20784313725490197
            specularColor 0.01568627450980392 0.01568627450980392 0.01568627450980392
            ambientIntensity 0.298
            transparency 0.0
            shininess 0.5
        }
    }
    geometry IndexedFaceSet {
        ccw TRUE
        solid FALSE
        coord DEF co Coordinate {
            point [
                2.7277 -1.8681 0.7134, 2.7066 -1.8681 0.7106, 2.7277 -1.8681 0.7048, 2.6973 -1.8681 0.7085, 2.6935 -1.8681 0.7067, 2.6913 -1.8681 0.7051, 2.7276 -1.8681 0.7038, 2.7266 -1.8681 0.6967, 2.6894 -1.8681 0.7027, 2.7243 -1.8681 0.6911, 2.6903 -1.8681 0.6845, 2.6917 -1.8681 0.6831, 2.7189 -1.8681 0.6845, 2.6885 -1.8681 0.6872, 2.7144 -1.8681 0.6815, 2.7097 -1.8681 0.6797, 2.7037 -1.8681 0.6791, 2.688 -1.8681 0.6998, 2.6872 -1.8681 0.6962, 2.7209 -1.8681 0.6864, 2.6871 -1.8681 0.6936, 2.6875 -1.8681 0.69, 2.6948 -1.8681 0.681, 2.6984 -1.8681 0.6797
            ]
        }
        coordIndex [
            0,1,2,-1,2,1,3,-1,3,4,2,-1,2,4,5,-1,2,5,6,-1,6,5,7,-1,7,5,8,-1,7,8,9,-1,10,11,12,-1,10,12,13,-1,14,12,15,-1,15,12,16,-1,8,17,9,-1,9,17,18,-1,9,18,19,-1,19,18,20,-1,19,20,12,-1,12,20,21,-1,12,21,13,-1,11,22,12,-1,12,22,23,-1,12,23,16,-1,
        ]
    }
}
Shape{
    appearance Appearance {
        material  Material 	{
            diffuseColor 1.0 1.0 1.0
            specularColor 0.8784313725490196 0.8784313725490196 0.8784313725490196
            ambientIntensity 1.0
            transparency 0.0
            shininess 0.5
        }
    }
    geometry IndexedFaceSet {
        ccw TRUE
        solid FALSE
        coord DEF co Coordinate {
            point [
                2.0075 -1.8721 0.8854, 2.0275 -1.8721 0.896, 2.0228 -1.8721 0.9512, 2.1807 -1.8721 0.6467, 2.1913 -1.8721 0.6667, 2.1966 -1.8721 0.6888, 2.0788 -1.8721 0.9538, 2.1066 -1.8721 0.8884, 2.1203 -1.8721 0.9167, 2.0733 -1.8721 0.6864, 2.0717 -1.8721 0.6948, 2.0232 -1.8721 0.7297, 2.0223 -1.8721 0.6696, 2.0109 -1.8721 0.673, 2.0036 -1.8721 0.7417, 2.0581 -1.8721 0.9556, 2.3226 -1.8721 0.7736, 2.2948 -1.8721 0.8211, 2.1971 -1.8721 0.7073, 2.1747 -1.8721 0.7584, 2.1971 -1.8721 0.6983, 2.1492 -1.8721 0.619, 2.167 -1.8721 0.6315, 2.0769 -1.8721 0.6789, 2.0446 -1.8721 0.6339, 2.0313 -1.8721 0.6503, 2.3522 -1.8721 0.8624, 2.3594 -1.8721 0.8624, 2.3961 -1.8721 0.9108, 2.3765 -1.8721 0.8602, 2.4005 -1.8721 0.9093, 2.3921 -1.8721 0.8542, 2.4272 -1.8721 0.8961, 2.4515 -1.8721 0.8755, 2.0971 -1.8721 0.9752, 2.1404 -1.8721 0.9408, 2.1182 -1.8721 0.9932, 2.1644 -1.8721 0.9583, 2.1401 -1.8721 1.0068, 2.0496 -1.8721 0.9013, 2.059 -1.8721 0.9018, 2.0685 -1.8721 0.955, 2.0802 -1.8721 0.8992, 2.1003 -1.8721 0.8918, 2.135 -1.8721 0.6771, 2.1301 -1.8721 0.6716, 2.1233 -1.8721 0.6667, 2.1292 -1.8721 0.6113, 2.1155 -1.8721 0.6636, 2.1075 -1.8721 0.6086, 2.1066 -1.8721 0.6624, 2.1041 -1.8721 0.6087, 2.105 -1.8721 0.6625, 2.0829 -1.8721 0.612, 2.097 -1.8721 0.6638, 2.0622 -1.8721 0.6207, 2.0889 -1.8721 0.6673, 2.082 -1.8721 0.6725, 2.1392 -1.8721 0.7099, 2.1413 -1.8721 0.7016, 2.1413 -1.8721 0.6934, 2.1391 -1.8721 0.6848, 2.4517 -1.8721 0.7082, 2.41 -1.8721 0.7438, 2.4273 -1.8721 0.6875, 2.3967 -1.8721 0.733, 2.4 -1.8721 0.6741, 2.3809 -1.8721 0.7256, 2.3701 -1.8721 0.6678, 2.3648 -1.8721 0.7225, 2.3172 -1.8721 0.6678, 2.3244 -1.8721 0.7225, 2.3122 -1.8721 0.6686, 2.0721 -1.8721 0.7036, 2.0748 -1.8721 0.712, 2.0331 -1.8721 0.7489, 2.0794 -1.8721 0.7194, 2.0479 -1.8721 0.7659, 2.0829 -1.8721 0.7232, 2.0662 -1.8721 0.7786, 2.09 -1.8721 0.7281, 2.086 -1.8721 0.7862, 2.0978 -1.8721 0.7312, 2.1075 -1.8721 0.7888, 2.1066 -1.8721 0.7324, 2.1183 -1.8721 0.7882, 2.114 -1.8721 0.7315, 2.14 -1.8721 0.7828, 2.1223 -1.8721 0.7286, 2.159 -1.8721 0.7726, 2.1296 -1.8721 0.7237, 2.1353 -1.8721 0.7173, 2.406 -1.8721 0.8445, 2.4162 -1.8721 0.8331, 2.4698 -1.8721 0.85, 2.4246 -1.8721 0.8176, 2.4808 -1.8721 0.8226, 2.4288 -1.8721 0.8004, 2.4849 -1.8721 0.7933, 2.4293 -1.8721 0.7924, 2.4808 -1.8721 0.7614, 2.4271 -1.8721 0.7749, 2.4695 -1.8721 0.733, 2.421 -1.8721 0.759, 2.4111 -1.8721 0.745, 2.3477 -1.8721 0.9816, 2.3126 -1.8721 0.9405, 2.3775 -1.8721 0.9471, 2.3328 -1.8721 0.9163, 2.3467 -1.8721 0.8875, 1.9721 -1.8721 0.8339, 1.9132 -1.8721 0.8189, 1.9694 -1.8721 0.8122, 1.9129 -1.8721 0.8104, 1.9705 -1.8721 0.7982, 1.9173 -1.8721 0.7752, 1.9769 -1.8721 0.7763, 1.9301 -1.8721 0.7418, 1.9875 -1.8721 0.7583, 1.9506 -1.8721 0.7126, 1.9785 -1.8721 0.6888, 2.1815 -1.8721 1.0228, 2.1937 -1.8721 0.9702, 2.2258 -1.8721 1.0282, 2.2267 -1.8721 0.9744, 2.2627 -1.8721 1.0243, 2.2571 -1.8721 0.9707, 2.3077 -1.8721 1.0085, 2.2852 -1.8721 0.9599, 2.3104 -1.8721 0.9424, 1.9896 -1.8721 0.9383, 1.9611 -1.8721 0.9183, 1.9922 -1.8721 0.8717, 1.955 -1.8721 0.9126, 1.9798 -1.8721 0.8539, 1.9335 -1.8721 0.8849, 1.9192 -1.8721 0.8526, 2.3199 -1.8721 0.7233, 2.2984 -1.8721 0.6772, 2.3004 -1.8721 0.6751, 2.3226 -1.8721 0.7227, 2.3063 -1.8721 0.671, 2.2912 -1.8721 0.6956, 2.2921 -1.8721 0.6889, 2.2944 -1.8721 0.6828, 2.3121 -1.8721 0.7225, 2.3059 -1.8721 0.7201, 2.2915 -1.8721 0.6991, 2.3004 -1.8721 0.7162, 2.2967 -1.8721 0.7121, 2.2933 -1.8721 0.706, 2.319 -1.8721 0.7234, 2.4574 -1.8681 0.8672, 2.4698 -1.8681 0.85, 2.4777 -1.8681 0.8303, 2.4808 -1.8681 0.8226, 2.4849 -1.8681 0.7933, 2.4515 -1.8681 0.8755, 2.4272 -1.8681 0.8961, 2.4005 -1.8681 0.9093, 2.3961 -1.8681 0.9108, 2.3775 -1.8681 0.9471, 2.3477 -1.8681 0.9816, 2.3077 -1.8681 1.0085, 2.2627 -1.8681 1.0243, 2.2258 -1.8681 1.0282, 2.1815 -1.8681 1.0228, 2.1401 -1.8681 1.0068, 2.1182 -1.8681 0.9932, 2.0971 -1.8681 0.9752, 2.0788 -1.8681 0.9538, 2.0685 -1.8681 0.955, 2.0581 -1.8681 0.9556, 2.0228 -1.8681 0.9512, 1.9896 -1.8681 0.9383, 1.9611 -1.8681 0.9183, 1.955 -1.8681 0.9126, 1.9152 -1.8681 0.8303, 1.9192 -1.8681 0.8526, 1.9256 -1.8681 0.8672, 1.9335 -1.8681 0.8849, 1.9132 -1.8681 0.8189, 1.9129 -1.8681 0.8104, 1.9173 -1.8681 0.7752, 1.9301 -1.8681 0.7418, 1.9506 -1.8681 0.7126, 1.9785 -1.8681 0.6888, 2.0109 -1.8681 0.673, 2.0223 -1.8681 0.6696, 2.0234 -1.8681 0.6672, 2.0313 -1.8681 0.6503, 2.0446 -1.8681 0.6339, 2.0622 -1.8681 0.6207, 2.0704 -1.8681 0.6172, 2.0829 -1.8681 0.612, 2.1041 -1.8681 0.6087, 2.1075 -1.8681 0.6086, 2.1971 -1.8681 0.6983, 2.1292 -1.8681 0.6113, 2.1446 -1.8681 0.6172, 2.1492 -1.8681 0.619, 2.167 -1.8681 0.6315, 2.1807 -1.8681 0.6467, 2.1913 -1.8681 0.6667, 2.1914 -1.8681 0.6672, 2.1966 -1.8681 0.6888, 2.1971 -1.8681 0.7073, 2.3226 -1.8681 0.7736, 2.2948 -1.8681 0.8211, 2.1747 -1.8681 0.7584, 2.159 -1.8681 0.7726, 2.14 -1.8681 0.7828, 2.1183 -1.8681 0.7882, 2.1075 -1.8681 0.7888, 2.086 -1.8681 0.7862, 2.0662 -1.8681 0.7786, 2.0479 -1.8681 0.7659, 2.0331 -1.8681 0.7489, 2.0232 -1.8681 0.7297, 2.0036 -1.8681 0.7417, 1.9875 -1.8681 0.7583, 1.9769 -1.8681 0.7763, 1.9705 -1.8681 0.7982, 1.9694 -1.8681 0.8122, 1.9716 -1.8681 0.8303, 1.9721 -1.8681 0.8339, 1.9798 -1.8681 0.8539, 1.9891 -1.8681 0.8672, 1.9922 -1.8681 0.8717, 2.0075 -1.8681 0.8854, 2.0275 -1.8681 0.896, 2.0496 -1.8681 0.9013, 2.059 -1.8681 0.9018, 2.0802 -1.8681 0.8992, 2.1003 -1.8681 0.8918, 2.1066 -1.8681 0.8884, 2.1203 -1.8681 0.9167, 2.1404 -1.8681 0.9408, 2.1644 -1.8681 0.9583, 2.1937 -1.8681 0.9702, 2.2267 -1.8681 0.9744, 2.2571 -1.8681 0.9707, 2.2852 -1.8681 0.9599, 2.3104 -1.8681 0.9424, 2.3126 -1.8681 0.9405, 2.3328 -1.8681 0.9163, 2.3467 -1.8681 0.8875, 2.3511 -1.8681 0.8672, 2.3522 -1.8681 0.8624, 2.3594 -1.8681 0.8624, 2.3765 -1.8681 0.8602, 2.3921 -1.8681 0.8542, 2.406 -1.8681 0.8445, 2.4162 -1.8681 0.8331, 2.4178 -1.8681 0.8303, 2.4246 -1.8681 0.8176, 2.4288 -1.8681 0.8004, 2.4293 -1.8681 0.7924, 2.4271 -1.8681 0.7749, 2.421 -1.8681 0.759, 2.4111 -1.8681 0.745, 2.41 -1.8681 0.7438, 2.3967 -1.8681 0.733, 2.3809 -1.8681 0.7256, 2.3648 -1.8681 0.7225, 2.3244 -1.8681 0.7225, 2.3226 -1.8681 0.7227, 2.3199 -1.8681 0.7233, 2.319 -1.8681 0.7234, 2.3121 -1.8681 0.7225, 2.3059 -1.8681 0.7201, 2.3004 -1.8681 0.7162, 2.2967 -1.8681 0.7121, 2.2933 -1.8681 0.706, 2.2915 -1.8681 0.6991, 2.2912 -1.8681 0.6956, 2.2921 -1.8681 0.6889, 2.2944 -1.8681 0.6828, 2.2984 -1.8681 0.6772, 2.3004 -1.8681 0.6751, 2.3063 -1.8681 0.671, 2.3122 -1.8681 0.6686, 2.3172 -1.8681 0.6678, 2.3701 -1.8681 0.6678, 2.4 -1.8681 0.6741, 2.4273 -1.8681 0.6875, 2.4517 -1.8681 0.7082, 2.4695 -1.8681 0.733, 2.4808 -1.8681 0.7614, 2.1066 -1.8681 0.7324, 2.114 -1.8681 0.7315, 2.1223 -1.8681 0.7286, 2.1296 -1.8681 0.7237, 2.1353 -1.8681 0.7173, 2.1392 -1.8681 0.7099, 2.1413 -1.8681 0.7016, 2.1413 -1.8681 0.6934, 2.1391 -1.8681 0.6848, 2.135 -1.8681 0.6771, 2.1301 -1.8681 0.6716, 2.1233 -1.8681 0.6667, 2.1155 -1.8681 0.6636, 2.1066 -1.8681 0.6624, 2.105 -1.8681 0.6625, 2.097 -1.8681 0.6638, 2.0889 -1.8681 0.6673, 2.082 -1.8681 0.6725, 2.0769 -1.8681 0.6789, 2.0733 -1.8681 0.6864, 2.0717 -1.8681 0.6948, 2.0721 -1.8681 0.7036, 2.0748 -1.8681 0.712, 2.0794 -1.8681 0.7194, 2.0829 -1.8681 0.7232, 2.09 -1.8681 0.7281, 2.0978 -1.8681 0.7312
            ]
        }
        coordIndex [
            0,1,2,-1,3,4,5,-1,6,7,8,-1,9,10,11,-1,12,11,13,-1,13,11,14,-1,2,1,15,-1,16,17,18,-1,18,17,19,-1,18,19,20,-1,20,19,21,-1,20,21,5,-1,5,21,22,-1,5,22,3,-1,23,9,24,-1,24,9,11,-1,24,11,25,-1,25,11,12,-1,26,27,28,-1,28,27,29,-1,28,29,30,-1,30,29,31,-1,30,31,32,-1,32,31,33,-1,6,8,34,-1,34,8,35,-1,34,35,36,-1,36,35,37,-1,36,37,38,-1,1,39,15,-1,15,39,40,-1,15,40,41,-1,41,40,42,-1,41,42,6,-1,6,42,43,-1,6,43,7,-1,44,45,21,-1,21,45,46,-1,21,46,47,-1,47,46,48,-1,47,48,49,-1,49,48,50,-1,49,50,51,-1,51,50,52,-1,51,52,53,-1,53,52,54,-1,53,54,55,-1,55,54,56,-1,55,56,24,-1,24,56,57,-1,24,57,23,-1,58,59,19,-1,19,59,60,-1,19,60,21,-1,21,60,61,-1,21,61,44,-1,62,63,64,-1,64,63,65,-1,64,65,66,-1,66,65,67,-1,66,67,68,-1,68,67,69,-1,68,69,70,-1,70,69,71,-1,70,71,72,-1,10,73,11,-1,11,73,74,-1,11,74,75,-1,75,74,76,-1,75,76,77,-1,77,76,78,-1,77,78,79,-1,79,78,80,-1,79,80,81,-1,81,80,82,-1,81,82,83,-1,83,82,84,-1,83,84,85,-1,85,84,86,-1,85,86,87,-1,87,86,88,-1,87,88,89,-1,89,88,90,-1,89,90,19,-1,19,90,91,-1,19,91,58,-1,31,92,33,-1,33,92,93,-1,33,93,94,-1,94,93,95,-1,94,95,96,-1,96,95,97,-1,96,97,98,-1,98,97,99,-1,98,99,100,-1,100,99,101,-1,100,101,102,-1,102,101,103,-1,102,103,62,-1,62,103,104,-1,62,104,63,-1,105,106,107,-1,107,106,108,-1,107,108,28,-1,28,108,109,-1,28,109,26,-1,110,111,112,-1,112,111,113,-1,112,113,114,-1,114,113,115,-1,114,115,116,-1,116,115,117,-1,116,117,118,-1,118,117,119,-1,118,119,14,-1,14,119,120,-1,14,120,13,-1,38,37,121,-1,121,37,122,-1,121,122,123,-1,123,122,124,-1,123,124,125,-1,125,124,126,-1,125,126,127,-1,127,126,128,-1,127,128,105,-1,105,128,129,-1,105,129,106,-1,2,130,0,-1,0,130,131,-1,0,131,132,-1,132,131,133,-1,132,133,134,-1,134,133,135,-1,134,135,110,-1,110,135,136,-1,110,136,111,-1,137,138,139,-1,71,140,72,-1,72,140,137,-1,72,137,141,-1,141,137,139,-1,142,143,137,-1,137,143,144,-1,137,144,138,-1,145,146,147,-1,146,148,147,-1,147,148,149,-1,147,149,150,-1,142,137,147,-1,147,137,151,-1,147,151,145,-1,152,33,153,-1,153,33,94,-1,153,94,154,-1,154,94,96,-1,154,96,155,-1,155,96,98,-1,155,98,156,-1,152,157,33,-1,33,157,158,-1,33,158,32,-1,32,158,159,-1,32,159,30,-1,30,159,160,-1,30,160,28,-1,28,160,161,-1,28,161,107,-1,107,161,162,-1,107,162,105,-1,105,162,163,-1,105,163,127,-1,127,163,164,-1,127,164,125,-1,125,164,165,-1,125,165,123,-1,123,165,166,-1,123,166,121,-1,121,166,167,-1,121,167,38,-1,38,167,168,-1,38,168,36,-1,36,168,169,-1,36,169,34,-1,34,169,170,-1,34,170,6,-1,6,170,171,-1,6,171,41,-1,41,171,172,-1,41,172,15,-1,15,172,173,-1,15,173,2,-1,2,173,174,-1,2,174,130,-1,130,174,175,-1,130,175,131,-1,131,175,176,-1,131,176,133,-1,177,111,178,-1,178,111,136,-1,178,136,179,-1,179,136,135,-1,179,135,180,-1,180,135,133,-1,180,133,176,-1,177,181,111,-1,111,181,182,-1,111,182,113,-1,113,182,183,-1,113,183,115,-1,115,183,184,-1,115,184,117,-1,117,184,185,-1,117,185,119,-1,119,185,186,-1,119,186,120,-1,120,186,187,-1,120,187,13,-1,13,187,188,-1,13,188,12,-1,12,188,189,-1,12,189,25,-1,189,190,25,-1,25,190,191,-1,25,191,24,-1,24,191,192,-1,24,192,55,-1,55,192,193,-1,55,193,53,-1,193,194,53,-1,53,194,195,-1,53,195,51,-1,51,195,196,-1,51,196,49,-1,197,20,5,-1,49,196,198,-1,199,21,198,-1,198,21,47,-1,198,47,49,-1,199,200,21,-1,21,200,201,-1,21,201,22,-1,22,201,202,-1,22,202,3,-1,3,202,203,-1,3,203,4,-1,4,203,204,-1,4,204,5,-1,5,204,205,-1,5,205,197,-1,18,20,206,-1,206,20,197,-1,16,18,207,-1,207,18,206,-1,17,16,208,-1,208,16,207,-1,19,17,209,-1,209,17,208,-1,19,209,210,-1,19,210,89,-1,89,210,211,-1,89,211,87,-1,87,211,212,-1,87,212,85,-1,85,212,213,-1,85,213,83,-1,83,213,214,-1,83,214,81,-1,81,214,215,-1,81,215,79,-1,79,215,216,-1,79,216,77,-1,77,216,217,-1,77,217,75,-1,75,217,218,-1,75,218,11,-1,11,218,219,-1,11,219,14,-1,14,219,220,-1,14,220,118,-1,118,220,221,-1,118,221,116,-1,116,221,222,-1,116,222,114,-1,114,222,223,-1,114,223,112,-1,110,112,223,-1,223,224,110,-1,110,224,225,-1,110,225,226,-1,227,132,226,-1,226,132,134,-1,226,134,110,-1,227,228,132,-1,132,228,229,-1,132,229,0,-1,0,229,230,-1,0,230,1,-1,1,230,231,-1,1,231,39,-1,39,231,232,-1,39,232,40,-1,40,232,233,-1,40,233,42,-1,42,233,234,-1,42,234,43,-1,43,234,235,-1,43,235,7,-1,7,235,236,-1,7,236,8,-1,8,236,237,-1,8,237,35,-1,35,237,238,-1,35,238,37,-1,37,238,239,-1,37,239,122,-1,122,239,240,-1,122,240,124,-1,124,240,241,-1,124,241,126,-1,126,241,242,-1,126,242,128,-1,128,242,243,-1,128,243,129,-1,129,243,244,-1,129,244,106,-1,106,244,245,-1,106,245,108,-1,108,245,246,-1,108,246,109,-1,109,246,26,-1,26,246,247,-1,26,247,248,-1,27,26,249,-1,249,26,248,-1,27,249,250,-1,27,250,29,-1,29,250,251,-1,29,251,31,-1,31,251,252,-1,31,252,92,-1,92,252,253,-1,92,253,93,-1,93,253,254,-1,93,254,95,-1,254,255,95,-1,95,255,256,-1,95,256,97,-1,97,256,257,-1,97,257,99,-1,99,257,258,-1,99,258,101,-1,101,258,259,-1,101,259,103,-1,103,259,260,-1,103,260,104,-1,104,260,261,-1,104,261,63,-1,63,261,262,-1,63,262,65,-1,65,262,263,-1,65,263,67,-1,67,263,264,-1,67,264,69,-1,71,69,265,-1,265,69,264,-1,71,265,266,-1,71,266,140,-1,140,266,267,-1,140,267,137,-1,137,267,268,-1,137,268,151,-1,151,268,269,-1,151,269,145,-1,145,269,270,-1,145,270,146,-1,146,270,271,-1,146,271,148,-1,148,271,272,-1,148,272,149,-1,149,272,273,-1,149,273,150,-1,150,273,274,-1,150,274,147,-1,147,274,275,-1,147,275,142,-1,142,275,276,-1,142,276,143,-1,143,276,277,-1,143,277,144,-1,144,277,278,-1,144,278,138,-1,138,278,279,-1,138,279,139,-1,139,279,280,-1,139,280,141,-1,141,280,281,-1,141,281,72,-1,72,281,282,-1,72,282,70,-1,68,70,283,-1,283,70,282,-1,68,283,284,-1,68,284,66,-1,66,284,285,-1,66,285,64,-1,64,285,286,-1,64,286,62,-1,62,286,287,-1,62,287,102,-1,102,287,288,-1,102,288,100,-1,100,288,156,-1,100,156,98,-1,84,289,290,-1,84,290,86,-1,86,290,291,-1,86,291,88,-1,88,291,292,-1,88,292,90,-1,90,292,293,-1,90,293,91,-1,91,293,294,-1,91,294,58,-1,58,294,295,-1,58,295,59,-1,59,295,296,-1,59,296,60,-1,60,296,297,-1,60,297,61,-1,61,297,298,-1,61,298,44,-1,44,298,299,-1,44,299,45,-1,45,299,300,-1,45,300,46,-1,46,300,301,-1,46,301,48,-1,48,301,302,-1,48,302,50,-1,50,302,303,-1,50,303,52,-1,52,303,304,-1,52,304,54,-1,54,304,305,-1,54,305,56,-1,56,305,306,-1,56,306,57,-1,57,306,307,-1,57,307,23,-1,23,307,308,-1,23,308,9,-1,9,308,309,-1,9,309,10,-1,10,309,310,-1,10,310,73,-1,73,310,311,-1,73,311,74,-1,74,311,312,-1,74,312,76,-1,76,312,313,-1,76,313,78,-1,78,313,314,-1,78,314,80,-1,80,314,315,-1,80,315,82,-1,82,315,289,-1,82,289,84,-1,
        ]
    }
}
Shape{
    appearance Appearance {
        material  Material 	{
            diffuseColor 0.20784313725490197 0.20784313725490197 0.20784313725490197
            specularColor 0.01568627450980392 0.01568627450980392 0.01568627450980392
            ambientIntensity 0.298
            transparency 0.0
            shininess 0.5
        }
    }
    geometry IndexedFaceSet {
        ccw TRUE
        solid FALSE
        coord DEF co Coordinate {
            point [
                2.105 -1.8681 0.6625, 2.0829 -1.8681 0.7232, 2.0794 -1.8681 0.7194, 2.1155 -1.8681 0.6636, 2.1233 -1.8681 0.6667, 2.114 -1.8681 0.7315, 2.1066 -1.8681 0.7324, 2.0978 -1.8681 0.7312, 2.09 -1.8681 0.7281, 2.0733 -1.8681 0.6864, 2.0769 -1.8681 0.6789, 2.082 -1.8681 0.6725, 2.1066 -1.8681 0.6624, 2.0748 -1.8681 0.712, 2.0721 -1.8681 0.7036, 2.0717 -1.8681 0.6948, 2.0889 -1.8681 0.6673, 2.097 -1.8681 0.6638, 2.1301 -1.8681 0.6716, 2.135 -1.8681 0.6771, 2.1391 -1.8681 0.6848, 2.1413 -1.8681 0.6934, 2.1413 -1.8681 0.7016, 2.1392 -1.8681 0.7099, 2.1353 -1.8681 0.7173, 2.1296 -1.8681 0.7237, 2.1223 -1.8681 0.7286
            ]
        }
        coordIndex [
            0,1,2,-1,3,4,5,-1,6,7,0,-1,0,7,8,-1,0,8,1,-1,9,10,2,-1,2,10,11,-1,6,0,5,-1,5,0,12,-1,5,12,3,-1,13,14,2,-1,2,14,15,-1,2,15,9,-1,11,16,2,-1,2,16,17,-1,2,17,0,-1,4,18,5,-1,5,18,19,-1,5,19,20,-1,20,21,5,-1,5,21,22,-1,5,22,23,-1,23,24,5,-1,5,24,25,-1,5,25,26,-1,
        ]
    }
}
Shape{
    appearance Appearance {
        material  Material 	{
            diffuseColor 1.0 1.0 1.0
            specularColor 0.8784313725490196 0.8784313725490196 0.8784313725490196
            ambientIntensity 1.0
            transparency 0.0
            shininess 0.5
        }
    }
    geometry IndexedFaceSet {
        ccw TRUE
        solid FALSE
        coord DEF co Coordinate {
            point [
                2.9224 -1.8721 0.9781, 2.9096 -1.8721 0.9943, 2.9064 -1.8721 0.9799, 2.9071 -1.8721 0.9944, 2.8874 -1.8721 0.9799, 2.8711 -1.8721 0.9944, 2.8874 -1.8721 0.8827, 2.8711 -1.8721 0.8683, 2.9057 -1.8721 0.8827, 2.9058 -1.8721 0.8683, 2.9206 -1.8721 0.8841, 2.927 -1.8721 0.8708, 2.9316 -1.8721 0.8878, 2.9414 -1.8721 0.8764, 2.9402 -1.8721 0.8932, 2.9547 -1.8721 0.8859, 2.9432 -1.8721 0.8958, 2.9497 -1.8721 0.9041, 2.9633 -1.8721 0.8959, 2.954 -1.8721 0.9136, 2.9699 -1.8721 0.9088, 2.9563 -1.8721 0.9253, 2.9732 -1.8721 0.9233, 2.9566 -1.8721 0.9325, 2.9738 -1.8721 0.9329, 2.9552 -1.8721 0.9466, 2.9723 -1.8721 0.9476, 2.9518 -1.8721 0.9563, 2.9681 -1.8721 0.9601, 2.9471 -1.8721 0.9636, 2.9607 -1.8721 0.9716, 2.9428 -1.8721 0.968, 2.9547 -1.8721 0.9777, 2.9334 -1.8721 0.9742, 2.9435 -1.8721 0.9856, 2.9286 -1.8721 0.9917, 2.9547 -1.8681 0.8859, 2.9633 -1.8681 0.8959, 2.9699 -1.8681 0.9088, 2.9732 -1.8681 0.9233, 2.9738 -1.8681 0.9329, 2.9723 -1.8681 0.9476, 2.9681 -1.8681 0.9601, 2.9607 -1.8681 0.9716, 2.9547 -1.8681 0.9777, 2.9435 -1.8681 0.9856, 2.9289 -1.8681 0.9916, 2.9286 -1.8681 0.9917, 2.9096 -1.8681 0.9943, 2.9071 -1.8681 0.9944, 2.8711 -1.8681 0.9944, 2.8711 -1.8681 0.8683, 2.9058 -1.8681 0.8683, 2.927 -1.8681 0.8708, 2.9289 -1.8681 0.8716, 2.9414 -1.8681 0.8764, 2.9428 -1.8681 0.968, 2.9471 -1.8681 0.9636, 2.9518 -1.8681 0.9563, 2.9552 -1.8681 0.9466, 2.9566 -1.8681 0.9325, 2.9064 -1.8681 0.9799, 2.9224 -1.8681 0.9781, 2.9334 -1.8681 0.9742, 2.8874 -1.8681 0.9799, 2.8874 -1.8681 0.8827, 2.9057 -1.8681 0.8827, 2.9432 -1.8681 0.8958, 2.9402 -1.8681 0.8932, 2.9316 -1.8681 0.8878, 2.9206 -1.8681 0.8841, 2.9563 -1.8681 0.9253, 2.954 -1.8681 0.9136, 2.9497 -1.8681 0.9041
            ]
        }
        coordIndex [
            0,1,2,-1,2,1,3,-1,2,3,4,-1,4,3,5,-1,4,5,6,-1,6,5,7,-1,6,7,8,-1,8,7,9,-1,8,9,10,-1,10,9,11,-1,10,11,12,-1,12,11,13,-1,12,13,14,-1,14,13,15,-1,14,15,16,-1,16,15,17,-1,17,15,18,-1,17,18,19,-1,19,18,20,-1,19,20,21,-1,21,20,22,-1,21,22,23,-1,23,22,24,-1,23,24,25,-1,25,24,26,-1,25,26,27,-1,27,26,28,-1,27,28,29,-1,29,28,30,-1,29,30,31,-1,31,30,32,-1,31,32,33,-1,33,32,34,-1,33,34,0,-1,0,34,35,-1,0,35,1,-1,15,36,37,-1,15,37,18,-1,18,37,38,-1,18,38,20,-1,20,38,39,-1,20,39,22,-1,22,39,40,-1,22,40,24,-1,24,40,41,-1,24,41,26,-1,26,41,42,-1,26,42,28,-1,28,42,43,-1,28,43,30,-1,30,43,44,-1,30,44,32,-1,32,44,45,-1,32,45,34,-1,34,45,46,-1,34,46,35,-1,46,47,35,-1,35,47,48,-1,35,48,1,-1,1,48,49,-1,1,49,3,-1,5,3,50,-1,50,3,49,-1,7,5,51,-1,51,5,50,-1,9,7,52,-1,52,7,51,-1,36,15,13,-1,9,52,53,-1,9,53,11,-1,11,53,54,-1,11,54,13,-1,13,54,55,-1,13,55,36,-1,31,56,57,-1,31,57,29,-1,29,57,58,-1,29,58,27,-1,27,58,59,-1,27,59,25,-1,25,59,60,-1,25,60,23,-1,2,61,62,-1,2,62,0,-1,0,62,63,-1,0,63,33,-1,33,63,56,-1,33,56,31,-1,2,4,61,-1,61,4,64,-1,4,6,64,-1,64,6,65,-1,6,8,65,-1,65,8,66,-1,16,67,68,-1,16,68,14,-1,14,68,69,-1,14,69,12,-1,12,69,70,-1,12,70,10,-1,10,70,66,-1,10,66,8,-1,23,60,71,-1,23,71,21,-1,21,71,72,-1,21,72,19,-1,19,72,73,-1,19,73,17,-1,17,73,67,-1,17,67,16,-1,
        ]
    }
}
Shape{
    appearance Appearance {
        material  Material 	{
            diffuseColor 0.20784313725490197 0.20784313725490197 0.20784313725490197
            specularColor 0.01568627450980392 0.01568627450980392 0.01568627450980392
            ambientIntensity 0.298
            transparency 0.0
            shininess 0.5
        }
    }
    geometry IndexedFaceSet {
        ccw TRUE
        solid FALSE
        coord DEF co Coordinate {
            point [
                2.8874 -1.8681 0.9799, 2.8874 -1.8681 0.8827, 2.9064 -1.8681 0.9799, 2.9057 -1.8681 0.8827, 2.9206 -1.8681 0.8841, 2.9316 -1.8681 0.8878, 2.9402 -1.8681 0.8932, 2.9432 -1.8681 0.8958, 2.9497 -1.8681 0.9041, 2.954 -1.8681 0.9136, 2.9563 -1.8681 0.9253, 2.9566 -1.8681 0.9325, 2.9552 -1.8681 0.9466, 2.9518 -1.8681 0.9563, 2.9471 -1.8681 0.9636, 2.9428 -1.8681 0.968, 2.9224 -1.8681 0.9781, 2.9334 -1.8681 0.9742
            ]
        }
        coordIndex [
            0,1,2,-1,2,1,3,-1,2,3,4,-1,4,5,2,-1,2,5,6,-1,2,6,7,-1,7,8,2,-1,2,8,9,-1,2,9,10,-1,10,11,2,-1,2,11,12,-1,2,12,13,-1,13,14,2,-1,2,14,15,-1,2,15,16,-1,16,15,17,-1,
        ]
    }
}
Shape{
    appearance Appearance {
        material  Material 	{
            diffuseColor 1.0 1.0 1.0
            specularColor 0.8784313725490196 0.8784313725490196 0.8784313725490196
            ambientIntensity 1.0
            transparency 0.0
            shininess 0.5
        }
    }
    geometry IndexedFaceSet {
        ccw TRUE
        solid FALSE
        coord DEF co Coordinate {
            point [
                2.7217 -1.8721 0.8807, 2.7217 -1.8681 0.8807, 2.7093 -1.8681 0.8821, 2.7093 -1.8721 0.8821, 2.7003 -1.8681 0.8855, 2.7003 -1.8721 0.8855, 2.692 -1.8681 0.8913, 2.692 -1.8721 0.8913, 2.6893 -1.8681 0.8939, 2.6893 -1.8721 0.8939, 2.6829 -1.8681 0.9029, 2.6829 -1.8721 0.9029, 2.6789 -1.8681 0.9131, 2.6789 -1.8721 0.9131, 2.6769 -1.8681 0.9286, 2.6769 -1.8721 0.9286, 2.6769 -1.8681 0.9299, 2.6769 -1.8721 0.9299, 2.6784 -1.8681 0.9447, 2.6784 -1.8721 0.9447, 2.6822 -1.8681 0.9562, 2.6822 -1.8721 0.9562, 2.6879 -1.8681 0.9653, 2.6879 -1.8721 0.9653, 2.6901 -1.8681 0.9678, 2.6901 -1.8721 0.9678, 2.699 -1.8681 0.9751, 2.699 -1.8721 0.9751, 2.7089 -1.8681 0.9796, 2.7089 -1.8721 0.9796, 2.7199 -1.8681 0.9816, 2.7199 -1.8721 0.9816, 2.7245 -1.8681 0.9818, 2.7245 -1.8721 0.9818, 2.7384 -1.8681 0.9803, 2.7384 -1.8721 0.9803, 2.7514 -1.8681 0.9758, 2.7514 -1.8721 0.9758, 2.7542 -1.8681 0.9743, 2.7542 -1.8721 0.9743, 2.7542 -1.8721 0.9913, 2.7542 -1.8681 0.9913, 2.7424 -1.8681 0.9949, 2.7424 -1.8721 0.9949, 2.7262 -1.8681 0.9965, 2.7262 -1.8721 0.9965, 2.7243 -1.8681 0.9965, 2.7243 -1.8721 0.9965, 2.7063 -1.8681 0.9943, 2.7063 -1.8721 0.9943, 2.6931 -1.8681 0.9892, 2.6931 -1.8721 0.9892, 2.6809 -1.8681 0.9807, 2.6809 -1.8721 0.9807, 2.678 -1.8681 0.9779, 2.678 -1.8721 0.9779, 2.6698 -1.8681 0.9675, 2.6654 -1.8681 0.9581, 2.6634 -1.8721 0.9537, 2.6698 -1.8721 0.9675, 2.6634 -1.8681 0.9537, 2.6602 -1.8681 0.9376, 2.6602 -1.8721 0.9376, 2.6598 -1.8681 0.9289, 2.6598 -1.8721 0.9289, 2.6622 -1.8681 0.9087, 2.6654 -1.8681 0.9003, 2.6673 -1.8721 0.8954, 2.6622 -1.8721 0.9087, 2.6673 -1.8681 0.8954, 2.6748 -1.8681 0.8847, 2.6748 -1.8721 0.8847, 2.676 -1.8681 0.8834, 2.676 -1.8721 0.8834, 2.6973 -1.8681 0.8696, 2.6855 -1.8721 0.8753, 2.6855 -1.8681 0.8753, 2.708 -1.8681 0.8672, 2.7109 -1.8721 0.8666, 2.6973 -1.8721 0.8696, 2.7109 -1.8681 0.8666, 2.7193 -1.8681 0.8662, 2.7193 -1.8721 0.8662, 2.7385 -1.8721 0.868, 2.7304 -1.8681 0.8672, 2.7385 -1.8681 0.868, 2.7521 -1.8681 0.8724, 2.7521 -1.8721 0.8724, 2.7542 -1.8681 0.8735, 2.7542 -1.8721 0.8735, 2.7542 -1.8721 0.8891, 2.7542 -1.8681 0.8891, 2.7428 -1.8681 0.8839, 2.7428 -1.8721 0.8839, 2.7288 -1.8681 0.881, 2.7288 -1.8721 0.881, 3.1739 -1.8721 0.717, 3.1688 -1.8721 0.7027, 3.2162 -1.8721 0.717, 3.2213 -1.8721 0.7027, 3.1928 -1.8721 0.7694, 3.1867 -1.8721 0.7943, 3.1387 -1.8721 0.6682, 3.1566 -1.8721 0.6682, 3.1939 -1.8721 0.7732, 3.1948 -1.8721 0.7782, 3.2041 -1.8721 0.7943, 3.1952 -1.8721 0.7782, 3.1962 -1.8721 0.7729, 3.1972 -1.8721 0.7694, 3.2521 -1.8721 0.6682, 3.2341 -1.8721 0.6682, 3.1867 -1.8681 0.7943, 3.2041 -1.8681 0.7943, 3.1387 -1.8681 0.6682, 3.1566 -1.8681 0.6682, 3.1688 -1.8681 0.7027, 3.2213 -1.8681 0.7027, 3.2341 -1.8681 0.6682, 3.2521 -1.8681 0.6682, 3.1928 -1.8681 0.7694, 3.1939 -1.8681 0.7732, 3.1948 -1.8681 0.7782, 3.1739 -1.8681 0.717, 3.2162 -1.8681 0.717, 3.1972 -1.8681 0.7694, 3.1952 -1.8681 0.7782, 3.1962 -1.8681 0.7729
            ]
        }
        coordIndex [
            0,1,2,-1,0,2,3,-1,3,2,4,-1,3,4,5,-1,5,4,6,-1,5,6,7,-1,7,6,8,-1,7,8,9,-1,9,8,10,-1,9,10,11,-1,11,10,12,-1,11,12,13,-1,13,12,14,-1,13,14,15,-1,15,14,16,-1,15,16,17,-1,17,16,18,-1,17,18,19,-1,19,18,20,-1,19,20,21,-1,21,20,22,-1,21,22,23,-1,23,22,24,-1,23,24,25,-1,25,24,26,-1,25,26,27,-1,27,26,28,-1,27,28,29,-1,29,28,30,-1,29,30,31,-1,31,30,32,-1,31,32,33,-1,33,32,34,-1,33,34,35,-1,35,34,36,-1,35,36,37,-1,37,36,38,-1,37,38,39,-1,40,39,41,-1,41,39,38,-1,40,41,42,-1,40,42,43,-1,43,42,44,-1,43,44,45,-1,45,44,46,-1,45,46,47,-1,47,46,48,-1,47,48,49,-1,49,48,50,-1,49,50,51,-1,51,50,52,-1,51,52,53,-1,53,52,54,-1,53,54,55,-1,55,54,56,-1,57,58,56,-1,56,58,59,-1,56,59,55,-1,57,60,58,-1,58,60,61,-1,58,61,62,-1,62,61,63,-1,62,63,64,-1,64,63,65,-1,66,67,65,-1,65,67,68,-1,65,68,64,-1,66,69,67,-1,67,69,70,-1,67,70,71,-1,71,70,72,-1,71,72,73,-1,74,75,76,-1,76,75,73,-1,76,73,72,-1,77,78,74,-1,74,78,79,-1,74,79,75,-1,77,80,78,-1,78,80,81,-1,78,81,82,-1,82,81,83,-1,83,81,84,-1,84,85,83,-1,83,85,86,-1,83,86,87,-1,87,86,88,-1,87,88,89,-1,90,89,91,-1,91,89,88,-1,90,91,92,-1,90,92,93,-1,93,92,94,-1,93,94,95,-1,95,94,1,-1,95,1,0,-1,37,39,40,-1,27,29,49,-1,11,13,68,-1,19,21,59,-1,49,29,47,-1,37,40,35,-1,68,13,64,-1,59,21,55,-1,29,31,47,-1,47,31,33,-1,47,33,45,-1,45,33,35,-1,45,35,43,-1,43,35,40,-1,49,51,27,-1,27,51,53,-1,27,53,25,-1,25,53,55,-1,25,55,23,-1,23,55,21,-1,68,67,11,-1,11,67,71,-1,11,71,9,-1,9,71,73,-1,9,73,7,-1,7,73,75,-1,7,75,5,-1,5,75,79,-1,5,79,3,-1,3,79,78,-1,3,78,0,-1,0,78,82,-1,0,82,95,-1,95,82,83,-1,95,83,93,-1,93,83,87,-1,93,87,90,-1,90,87,89,-1,13,15,64,-1,64,15,17,-1,64,17,62,-1,62,17,19,-1,62,19,58,-1,58,19,59,-1,96,97,98,-1,98,97,99,-1,100,101,96,-1,96,101,102,-1,96,102,97,-1,97,102,103,-1,100,104,101,-1,101,104,105,-1,101,105,106,-1,106,105,107,-1,106,107,108,-1,108,109,106,-1,106,109,98,-1,106,98,110,-1,110,98,99,-1,110,99,111,-1,101,106,112,-1,112,106,113,-1,102,101,114,-1,114,101,112,-1,103,102,115,-1,115,102,114,-1,97,103,116,-1,116,103,115,-1,99,97,117,-1,117,97,116,-1,111,99,118,-1,118,99,117,-1,110,111,119,-1,119,111,118,-1,106,110,113,-1,113,110,119,-1,100,120,121,-1,100,121,104,-1,104,121,122,-1,104,122,105,-1,100,96,120,-1,120,96,123,-1,96,98,123,-1,123,98,124,-1,98,109,124,-1,124,109,125,-1,107,126,127,-1,107,127,108,-1,108,127,125,-1,108,125,109,-1,107,105,126,-1,126,105,122,-1,
        ]
    }
}
Shape{
    appearance Appearance {
        material  Material 	{
            diffuseColor 0.20784313725490197 0.20784313725490197 0.20784313725490197
            specularColor 0.01568627450980392 0.01568627450980392 0.01568627450980392
            ambientIntensity 0.298
            transparency 0.0
            shininess 0.5
        }
    }
    geometry IndexedFaceSet {
        ccw TRUE
        solid FALSE
        coord DEF co Coordinate {
            point [
                3.1952 -1.8681 0.7782, 3.1948 -1.8681 0.7782, 3.1962 -1.8681 0.7729, 3.1939 -1.8681 0.7732, 3.1972 -1.8681 0.7694, 3.1928 -1.8681 0.7694, 3.2162 -1.8681 0.717, 3.1739 -1.8681 0.717
            ]
        }
        coordIndex [
            0,1,2,-1,2,1,3,-1,2,3,4,-1,4,3,5,-1,4,5,6,-1,6,5,7,-1,
        ]
    }
}
Shape{
    appearance Appearance {
        material  Material 	{
            diffuseColor 1.0 1.0 1.0
            specularColor 0.8784313725490196 0.8784313725490196 0.8784313725490196
            ambientIntensity 1.0
            transparency 0.0
            shininess 0.5
        }
    }
    geometry IndexedFaceSet {
        ccw TRUE
        solid FALSE
        coord DEF co Coordinate {
            point [
                2.9536 -1.8681 0.6826, 2.9536 -1.8721 0.6826, 2.9772 -1.8681 0.6826, 3.0052 -1.8721 0.6826, 3.0052 -1.8681 0.6826, 2.9536 -1.8721 0.725, 2.9536 -1.8681 0.725, 2.9987 -1.8681 0.725, 2.9987 -1.8721 0.725, 2.9772 -1.8681 0.725, 2.9987 -1.8721 0.7395, 2.9987 -1.8681 0.7395, 2.9536 -1.8681 0.7395, 2.9536 -1.8721 0.7395, 2.9772 -1.8681 0.7395, 2.9536 -1.8721 0.7798, 2.9536 -1.8681 0.7798, 3.0023 -1.8681 0.7798, 3.0023 -1.8721 0.7798, 2.9772 -1.8681 0.7798, 3.0023 -1.8721 0.7943, 3.0023 -1.8681 0.7943, 2.9374 -1.8681 0.7943, 2.9374 -1.8721 0.7943, 2.9772 -1.8681 0.7943, 2.9374 -1.8721 0.6682, 2.9374 -1.8681 0.6682, 3.0052 -1.8681 0.6682, 3.0052 -1.8721 0.6682, 2.9772 -1.8681 0.6682, 2.6044 -1.8721 0.6826, 2.656 -1.8721 0.6826, 2.6044 -1.8681 0.6826, 2.656 -1.8681 0.6826, 2.6044 -1.8721 0.725, 2.6044 -1.8681 0.725, 2.6495 -1.8721 0.725, 2.6495 -1.8681 0.725, 2.6495 -1.8721 0.7395, 2.6495 -1.8681 0.7395, 2.6044 -1.8721 0.7395, 2.6044 -1.8681 0.7395, 2.6044 -1.8721 0.7798, 2.6044 -1.8681 0.7798, 2.6531 -1.8721 0.7798, 2.6531 -1.8681 0.7798, 2.6531 -1.8721 0.7943, 2.6531 -1.8681 0.7943, 2.5882 -1.8721 0.7943, 2.5882 -1.8681 0.7943, 2.5882 -1.8721 0.6682, 2.5882 -1.8681 0.6682, 2.656 -1.8721 0.6682, 2.656 -1.8681 0.6682, 3.016 -1.8721 0.917, 3.0109 -1.8721 0.9028, 3.0583 -1.8721 0.917, 3.0634 -1.8721 0.9028, 3.0349 -1.8721 0.9694, 3.0288 -1.8721 0.9944, 2.9807 -1.8721 0.8683, 2.9987 -1.8721 0.8683, 3.036 -1.8721 0.9732, 3.0369 -1.8721 0.9783, 3.0462 -1.8721 0.9944, 3.0373 -1.8721 0.9783, 3.0383 -1.8721 0.9729, 3.0393 -1.8721 0.9694, 3.0942 -1.8721 0.8683, 3.0762 -1.8721 0.8683, 3.0288 -1.8681 0.9944, 3.0462 -1.8681 0.9944, 2.9807 -1.8681 0.8683, 3.0171 -1.8681 0.9637, 2.9987 -1.8681 0.8683, 3.0109 -1.8681 0.9028, 3.0634 -1.8681 0.9028, 3.0171 -1.8681 0.9028, 3.0762 -1.8681 0.8683, 3.0942 -1.8681 0.8683, 3.0349 -1.8681 0.9694, 3.036 -1.8681 0.9732, 3.0369 -1.8681 0.9783, 3.016 -1.8681 0.917, 3.0583 -1.8681 0.917, 3.0393 -1.8681 0.9694, 3.0373 -1.8681 0.9783, 3.0383 -1.8681 0.9729
            ]
        }
        coordIndex [
            0,1,2,-1,2,1,3,-1,2,3,4,-1,5,1,6,-1,6,1,0,-1,7,8,9,-1,9,8,5,-1,9,5,6,-1,10,8,11,-1,11,8,7,-1,12,13,14,-1,14,13,10,-1,14,10,11,-1,15,13,16,-1,16,13,12,-1,17,18,19,-1,19,18,15,-1,19,15,16,-1,20,18,21,-1,21,18,17,-1,22,23,24,-1,24,23,20,-1,24,20,21,-1,25,23,26,-1,26,23,22,-1,27,28,29,-1,29,28,25,-1,29,25,26,-1,3,28,4,-1,4,28,27,-1,25,28,3,-1,3,1,25,-1,25,1,5,-1,25,5,23,-1,18,20,15,-1,15,20,23,-1,15,23,13,-1,13,23,5,-1,13,5,10,-1,10,5,8,-1,30,31,32,-1,32,31,33,-1,34,30,35,-1,35,30,32,-1,36,34,37,-1,37,34,35,-1,38,36,39,-1,39,36,37,-1,40,38,41,-1,41,38,39,-1,42,40,43,-1,43,40,41,-1,44,42,45,-1,45,42,43,-1,46,44,47,-1,47,44,45,-1,48,46,49,-1,49,46,47,-1,50,48,51,-1,51,48,49,-1,52,50,53,-1,53,50,51,-1,31,52,33,-1,33,52,53,-1,50,52,31,-1,31,30,50,-1,50,30,34,-1,50,34,48,-1,44,46,42,-1,42,46,48,-1,42,48,40,-1,40,48,34,-1,40,34,38,-1,38,34,36,-1,54,55,56,-1,56,55,57,-1,58,59,54,-1,54,59,60,-1,54,60,55,-1,55,60,61,-1,58,62,59,-1,59,62,63,-1,59,63,64,-1,64,63,65,-1,64,65,66,-1,66,67,64,-1,64,67,56,-1,64,56,68,-1,68,56,57,-1,68,57,69,-1,59,64,70,-1,70,64,71,-1,72,60,73,-1,73,60,59,-1,73,59,70,-1,61,60,74,-1,74,60,72,-1,55,61,75,-1,75,61,74,-1,76,57,77,-1,77,57,55,-1,77,55,75,-1,69,57,78,-1,78,57,76,-1,68,69,79,-1,79,69,78,-1,64,68,71,-1,71,68,79,-1,58,80,81,-1,58,81,62,-1,62,81,82,-1,62,82,63,-1,58,54,80,-1,80,54,83,-1,54,56,83,-1,83,56,84,-1,56,67,84,-1,84,67,85,-1,65,86,87,-1,65,87,66,-1,66,87,85,-1,66,85,67,-1,65,63,86,-1,86,63,82,-1,
        ]
    }
}
Shape{
    appearance Appearance {
        material  Material 	{
            diffuseColor 0.20784313725490197 0.20784313725490197 0.20784313725490197
            specularColor 0.01568627450980392 0.01568627450980392 0.01568627450980392
            ambientIntensity 0.298
            transparency 0.0
            shininess 0.5
        }
    }
    geometry IndexedFaceSet {
        ccw TRUE
        solid FALSE
        coord DEF co Coordinate {
            point [
                3.0373 -1.8681 0.9783, 3.0369 -1.8681 0.9783, 3.0383 -1.8681 0.9729, 3.036 -1.8681 0.9732, 3.0393 -1.8681 0.9694, 3.0349 -1.8681 0.9694, 3.0583 -1.8681 0.917, 3.016 -1.8681 0.917
            ]
        }
        coordIndex [
            0,1,2,-1,2,1,3,-1,2,3,4,-1,4,3,5,-1,4,5,6,-1,6,5,7,-1,
        ]
    }
}
Shape{
    appearance Appearance {
        material  Material 	{
            diffuseColor 1.0 1.0 1.0
            specularColor 0.8784313725490196 0.8784313725490196 0.8784313725490196
            ambientIntensity 1.0
            transparency 0.0
            shininess 0.5
        }
    }
    geometry IndexedFaceSet {
        ccw TRUE
        solid FALSE
        coord DEF co Coordinate {
            point [
                2.7957 -1.8681 0.8827, 2.7957 -1.8721 0.8827, 2.8298 -1.8681 0.8827, 2.8473 -1.8721 0.8827, 2.8473 -1.8681 0.8827, 2.7957 -1.8721 0.9251, 2.7957 -1.8681 0.9251, 2.8408 -1.8721 0.9251, 2.8298 -1.8681 0.9251, 2.8408 -1.8681 0.9251, 2.8408 -1.8721 0.9395, 2.8408 -1.8681 0.9395, 2.7957 -1.8681 0.9395, 2.7957 -1.8721 0.9395, 2.8298 -1.8681 0.9395, 2.7957 -1.8721 0.9799, 2.7957 -1.8681 0.9799, 2.8444 -1.8681 0.9799, 2.8444 -1.8721 0.9799, 2.8298 -1.8681 0.9799, 2.8444 -1.8721 0.9944, 2.8444 -1.8681 0.9944, 2.7795 -1.8681 0.9944, 2.7795 -1.8721 0.9944, 2.8298 -1.8681 0.9944, 2.7795 -1.8721 0.8683, 2.7795 -1.8681 0.8683, 2.8473 -1.8681 0.8683, 2.8473 -1.8721 0.8683, 2.8298 -1.8681 0.8683, 2.6044 -1.8721 0.8827, 2.6546 -1.8721 0.8827, 2.6044 -1.8681 0.8827, 2.6546 -1.8681 0.8827, 2.6044 -1.8721 0.9944, 2.6044 -1.8681 0.9944, 2.5882 -1.8721 0.9944, 2.5882 -1.8681 0.9944, 2.5882 -1.8721 0.8683, 2.5882 -1.8681 0.8683, 2.6546 -1.8721 0.8683, 2.6546 -1.8681 0.8683
            ]
        }
        coordIndex [
            0,1,2,-1,2,1,3,-1,2,3,4,-1,5,1,6,-1,6,1,0,-1,5,6,7,-1,7,6,8,-1,7,8,9,-1,10,7,11,-1,11,7,9,-1,12,13,14,-1,14,13,10,-1,14,10,11,-1,15,13,16,-1,16,13,12,-1,17,18,19,-1,19,18,15,-1,19,15,16,-1,20,18,21,-1,21,18,17,-1,22,23,24,-1,24,23,20,-1,24,20,21,-1,25,23,26,-1,26,23,22,-1,27,28,29,-1,29,28,25,-1,29,25,26,-1,3,28,4,-1,4,28,27,-1,25,28,3,-1,3,1,25,-1,25,1,5,-1,25,5,23,-1,18,20,15,-1,15,20,23,-1,15,23,13,-1,13,23,5,-1,13,5,10,-1,10,5,7,-1,30,31,32,-1,32,31,33,-1,34,30,35,-1,35,30,32,-1,36,34,37,-1,37,34,35,-1,38,36,39,-1,39,36,37,-1,40,38,41,-1,41,38,39,-1,31,40,33,-1,33,40,41,-1,34,36,30,-1,30,36,38,-1,30,38,31,-1,31,38,40,-1,
        ]
    }
}